<svg width="816" height="1009" viewBox="0 0 816 1009" fill="none" xmlns="http://www.w3.org/2000/svg">
<path d="M57.5179 705.699C27.5409 851.908 439.278 863.097 561.614 761.308C682.381 660.825 727.914 464.321 661.182 357.856C621.133 300.997 436.147 140.123 271.253 173.338C106.359 206.552 87.4949 559.49 57.5179 705.699Z" fill="#E7FCFF"/>
<path fill-rule="evenodd" clip-rule="evenodd" d="M430.542 125.492C448.156 134.865 465.783 117.186 481.948 110.939C493.514 106.469 504.42 115.44 514.205 105.773C538.811 81.4646 525.383 47.9959 493.625 31.0971C461.867 14.1982 430.88 20.7962 411.864 45.3832C392.849 69.9701 398.784 108.593 430.542 125.492Z" fill="#191847"/>
<path fill-rule="evenodd" clip-rule="evenodd" d="M442.506 107.699C439.84 95.5843 440.47 82.8109 447.364 71.7912C467.228 40.0403 509.28 71.7266 509.353 93.1255C509.426 114.524 485.896 156.185 472.77 153.019C467.536 151.756 459.277 143.631 452.497 132.305L435.179 179.957L398.191 160.275L442.506 107.699Z" fill="#B28B67"/>
<path fill-rule="evenodd" clip-rule="evenodd" d="M458.499 87.3965C457.221 86.2418 455.643 85.37 453.845 84.9146C448.091 83.4567 442.274 86.8209 440.854 92.4288C440.274 94.7177 440.516 97.0265 441.397 99.0569C437.897 102.501 435.129 106.349 433.463 110.604C424.906 108.436 401.88 68.1465 440.708 45.5669C479.537 22.9873 513.478 77.8642 499.325 76.9774C491.189 76.4675 473.667 79.9195 458.499 87.3965Z" fill="#191847"/>
<path fill-rule="evenodd" clip-rule="evenodd" d="M390.813 322.753L456.509 537.529L488.334 720.182H513.287L479.659 322.753H390.813Z" fill="#997659"/>
<path fill-rule="evenodd" clip-rule="evenodd" d="M367.311 322.753C371.773 440.677 366.521 501.504 365.523 512.218C364.524 522.931 350.848 592.401 318.473 723.779L345.062 714.647C396.228 594.154 413.664 531.531 419.532 515.709C425.4 499.887 440.986 435.568 466.29 322.753H367.311Z" fill="#B28B67"/>
<path fill-rule="evenodd" clip-rule="evenodd" d="M318.673 714.515C316.72 719.728 315.743 723.63 315.743 726.218C315.743 729.366 316.268 733.96 317.317 740C320.969 740 353.791 740 415.783 740C418.342 731.541 416.865 726.974 411.352 726.299C405.839 725.625 401.259 725.016 397.613 724.472L351.847 704.069C350.966 703.677 349.934 704.072 349.541 704.953C349.535 704.968 349.528 704.983 349.522 704.999L346.58 712.135C341.476 714.516 337.329 715.707 334.138 715.707C331.546 715.707 327.966 714.66 323.398 712.566L323.398 712.565C321.645 711.762 319.572 712.532 318.769 714.284C318.734 714.36 318.702 714.437 318.673 714.515Z" fill="#E4E4E4"/>
<path fill-rule="evenodd" clip-rule="evenodd" d="M482.779 714.515C480.826 719.728 479.849 723.63 479.849 726.218C479.849 729.366 480.374 733.96 481.423 740C485.075 740 517.897 740 579.889 740C582.448 731.541 580.971 726.974 575.458 726.299C569.945 725.625 565.365 725.016 561.719 724.472L515.952 704.069C515.072 703.677 514.04 704.072 513.647 704.953C513.64 704.968 513.634 704.983 513.627 704.999L510.686 712.135C505.582 714.516 501.435 715.707 498.244 715.707C495.652 715.707 492.071 714.66 487.504 712.566L487.504 712.565C485.751 711.762 483.678 712.532 482.875 714.284C482.84 714.36 482.808 714.437 482.779 714.515Z" fill="#E4E4E4"/>
<path fill-rule="evenodd" clip-rule="evenodd" d="M382.084 322.753L410.017 432.179H495.335L482.614 322.753H382.084Z" fill="#69A1AC"/>
<path fill-rule="evenodd" clip-rule="evenodd" d="M366.372 322.753C357.181 350.303 355.435 386.778 361.134 432.179H448.198L472.139 322.753H366.372Z" fill="#89C5CC"/>
<path fill-rule="evenodd" clip-rule="evenodd" d="M544.521 295.034L593.976 343.28C608.366 349.418 620.156 356.195 629.347 363.612C631.413 366.105 633.664 370.882 623.939 368.745C614.214 366.607 603.889 364.796 602.062 367.958C600.234 371.121 605.62 375.967 602.242 380.106C599.99 382.865 592.417 374.089 579.522 353.776L528.095 323.456L544.521 295.034ZM325.01 301.838L361.493 301.982C338.966 374.701 326.805 413.285 325.01 417.735C320.97 427.746 329.519 442.993 333.174 451.187C321.268 456.515 322.537 436.784 307.517 443.772C293.808 450.15 283.379 461.706 267.54 451.933C265.593 450.731 263.459 446.207 268.615 442.672C281.46 433.864 299.971 418.449 302.472 413.375C305.882 406.456 313.395 369.277 325.01 301.838Z" fill="#B28B67"/>
<path fill-rule="evenodd" clip-rule="evenodd" d="M428.688 148.753L443.784 146.163C469.775 211.09 515.152 270.084 579.915 323.146L530.977 382.602C466.221 307.049 426.305 229.099 428.688 148.753Z" fill="#191847"/>
<path fill-rule="evenodd" clip-rule="evenodd" d="M362.88 338.465H497.307C466.163 262.742 450.592 198.415 450.592 145.486L410.042 139.444C378.173 190.698 369.173 253.802 362.88 338.465Z" fill="#DDE3E9"/>
<path fill-rule="evenodd" clip-rule="evenodd" d="M409.183 139.473C409.188 139.463 409.194 139.454 409.199 139.444H411.846C415.013 139.553 419.837 139.75 426.318 140.033L436.117 168.035C437.153 202.175 443.206 270.976 454.275 374.439H366.155C366.386 381.585 366.767 388.798 367.298 396.077H301.777C311.578 285.505 347.369 199.96 409.151 139.444L409.183 139.473V139.473Z" fill="#2F3676"/>
<path fill-rule="evenodd" clip-rule="evenodd" d="M371.976 283.007C374.484 327.551 380.763 358.257 390.813 375.127H366.178C365.099 343.079 367.032 312.373 371.976 283.007V283.007Z" fill="black" fill-opacity="0.1"/>
<path fill-rule="evenodd" clip-rule="evenodd" d="M385.769 321.008L429.22 300.807V321.008H385.769Z" fill="white" fill-opacity="0.2"/>
</svg>
