<?xml version="1.0" encoding="utf-8"?>
<!-- Generator: Adobe Illustrator 24.0.0, SVG Export Plug-In . SVG Version: 6.00 Build 0)  -->
<svg version="1.1" id="Layer_1" xmlns="http://www.w3.org/2000/svg" xmlns:xlink="http://www.w3.org/1999/xlink" x="0px" y="0px"
	 viewBox="0 0 216.5 269.5" style="enable-background:new 0 0 216.5 269.5;" xml:space="preserve">
<style type="text/css">
	.st0{fill:#E7FCFF;}
	.st1{fill-rule:evenodd;clip-rule:evenodd;fill:#191847;}
	.st2{fill-rule:evenodd;clip-rule:evenodd;fill:#B28B67;}
	.st3{fill-rule:evenodd;clip-rule:evenodd;fill:#997659;}
	.st4{fill-rule:evenodd;clip-rule:evenodd;fill:#E4E4E4;}
	.st5{fill-rule:evenodd;clip-rule:evenodd;fill:#69A1AC;}
	.st6{fill-rule:evenodd;clip-rule:evenodd;fill:#89C5CC;}
	.st7{fill-rule:evenodd;clip-rule:evenodd;fill:#DDE3E9;}
	.st8{fill-rule:evenodd;clip-rule:evenodd;fill:#2F3676;}
	.st9{fill-rule:evenodd;clip-rule:evenodd;fill-opacity:0.1;}
	.st10{fill-rule:evenodd;clip-rule:evenodd;fill:#FFFFFF;fill-opacity:0.2;}
</style>
<g>
	<path class="st0" d="M0.5,227.8c-10.2,49.8,130,53.6,171.6,18.9c41.1-34.2,56.6-101.1,33.9-137.3c-13.6-19.4-76.6-74.1-132.7-62.8
		C17.2,57.9,10.7,178.1,0.5,227.8z"/>
	<path class="st1" d="M127.5,35.3c6,3.2,12-2.8,17.5-5c3.9-1.5,7.6,1.5,11-1.8c8.4-8.3,3.8-19.7-7-25.4c-10.8-5.8-21.4-3.5-27.8,4.9
		C114.7,16.4,116.7,29.6,127.5,35.3z"/>
	<path class="st2" d="M131.6,29.3c-0.9-4.1-0.7-8.5,1.7-12.2c6.8-10.8,21.1,0,21.1,7.3c0,7.3-8,21.5-12.5,20.4
		c-1.8-0.4-4.6-3.2-6.9-7.1l-5.9,16.2l-12.6-6.7L131.6,29.3z"/>
	<path class="st1" d="M137,22.4c-0.4-0.4-1-0.7-1.6-0.8c-2-0.5-3.9,0.6-4.4,2.6c-0.2,0.8-0.1,1.6,0.2,2.3c-1.2,1.2-2.1,2.5-2.7,3.9
		c-2.9-0.7-10.8-14.5,2.5-22.1c13.2-7.7,24.8,11,20,10.7C148.2,18.6,142.2,19.8,137,22.4z"/>
	<path class="st3" d="M114,102.5l22.4,73.1l10.8,62.2h8.5l-11.4-135.3H114z"/>
	<path class="st2" d="M106,102.5c1.5,40.1-0.3,60.8-0.6,64.5c-0.3,3.6-5,27.3-16,72l9.1-3.1c17.4-41,23.4-62.3,25.3-67.7
		c2-5.4,7.3-27.3,15.9-65.7H106z"/>
	<path class="st4" d="M89.4,235.8c-0.7,1.8-1,3.1-1,4c0,1.1,0.2,2.6,0.5,4.7c1.2,0,12.4,0,33.5,0c0.9-2.9,0.4-4.4-1.5-4.7
		c-1.9-0.2-3.4-0.4-4.7-0.6l-15.6-6.9c-0.3-0.1-0.7,0-0.8,0.3c0,0,0,0,0,0l-1,2.4c-1.7,0.8-3.1,1.2-4.2,1.2c-0.9,0-2.1-0.4-3.7-1.1
		l0,0C90.4,234.9,89.7,235.2,89.4,235.8C89.4,235.8,89.4,235.8,89.4,235.8z"/>
	<path class="st4" d="M145.3,235.8c-0.7,1.8-1,3.1-1,4c0,1.1,0.2,2.6,0.5,4.7c1.2,0,12.4,0,33.5,0c0.9-2.9,0.4-4.4-1.5-4.7
		c-1.9-0.2-3.4-0.4-4.7-0.6l-15.6-6.9c-0.3-0.1-0.7,0-0.8,0.3c0,0,0,0,0,0l-1,2.4c-1.7,0.8-3.1,1.2-4.2,1.2c-0.9,0-2.1-0.4-3.7-1.1
		l0,0C146.3,234.9,145.6,235.2,145.3,235.8C145.3,235.8,145.3,235.8,145.3,235.8z"/>
	<path class="st5" d="M111,102.5l9.5,37.2h29l-4.3-37.2H111z"/>
	<path class="st6" d="M105.7,102.5c-3.1,9.4-3.7,21.8-1.8,37.2h29.6l8.1-37.2H105.7z"/>
	<path class="st2" d="M166.3,93l16.8,16.4c4.9,2.1,8.9,4.4,12,6.9c0.7,0.8,1.5,2.5-1.8,1.7c-3.3-0.7-6.8-1.3-7.4-0.3
		c-0.6,1.1,1.2,2.7,0.1,4.1c-0.8,0.9-3.3-2-7.7-9l-17.5-10.3L166.3,93z M91.6,95.4l12.4,0c-7.7,24.8-11.8,37.9-12.4,39.4
		c-1.4,3.4,1.5,8.6,2.8,11.4c-4.1,1.8-3.6-4.9-8.7-2.5c-4.7,2.2-8.2,6.1-13.6,2.8c-0.7-0.4-1.4-1.9,0.4-3.2c4.4-3,10.7-8.2,11.5-10
		C85.1,131,87.6,118.3,91.6,95.4z"/>
	<path class="st1" d="M126.9,43.2l5.1-0.9c8.8,22.1,24.3,42.2,46.3,60.2l-16.7,20.2C139.7,97.1,126.1,70.6,126.9,43.2z"/>
	<path class="st7" d="M104.5,107.8h45.8c-10.6-25.8-15.9-47.7-15.9-65.7l-13.8-2.1C109.7,57.5,106.6,79,104.5,107.8z"/>
	<path class="st8" d="M120.2,40.1C120.2,40.1,120.2,40.1,120.2,40.1l0.9,0c1.1,0,2.7,0.1,4.9,0.2l3.3,9.5c0.4,11.6,2.4,35,6.2,70.3
		h-30c0.1,2.4,0.2,4.9,0.4,7.4H83.7C87,89.8,99.2,60.7,120.2,40.1L120.2,40.1L120.2,40.1z"/>
	<path class="st9" d="M107.6,88.9c0.9,15.2,3,25.6,6.4,31.4h-8.4C105.2,109.4,105.9,98.9,107.6,88.9L107.6,88.9z"/>
	<path class="st10" d="M112.3,101.9l14.8-6.9v6.9H112.3z"/>
</g>
</svg>
