<svg width="511" height="369" viewBox="0 0 511 369" fill="none" xmlns="http://www.w3.org/2000/svg">
<path fill-rule="evenodd" clip-rule="evenodd" d="M345.386 58.9706C342.765 68.6296 339.348 90.3406 342.835 93.7463H364.89C364.892 93.7071 364.894 93.6681 364.896 93.6292C373.071 92.7247 379.429 85.7948 379.429 77.3802V61.4115C379.429 52.3822 372.108 45.0625 363.078 45.0625H361.557C353.356 45.0625 346.565 51.0991 345.386 58.9706Z" fill="#191847"/>
<path fill-rule="evenodd" clip-rule="evenodd" d="M370.864 74.3314C374.368 70.2185 376.74 65.178 376.344 59.5301C375.202 43.2568 352.546 46.8367 348.138 55.0501C343.731 63.2634 344.255 84.0973 349.951 85.5653C352.222 86.1507 357.061 84.7166 361.986 81.7486L358.895 103.615H377.147L370.864 74.3314Z" fill="#D4A181"/>
<path fill-rule="evenodd" clip-rule="evenodd" d="M365.93 71.5822C365.089 80.6145 365.426 90.9291 367.932 93.3775H389.987C391.216 72.0298 379.34 80.2966 379.34 60.1972C378.599 59.4739 377.9 58.7579 377.207 58.1405L377.232 57.5494C373.413 49.732 368.568 45.8232 362.696 45.8232C353.889 45.8232 351.11 49.9206 348.743 53.3993C350.513 59.4713 357.381 60.3717 363.484 64.1565C364.203 63.5721 365.121 63.2219 366.12 63.2219C368.43 63.2219 370.303 65.0944 370.303 67.4042C370.303 69.714 368.43 71.5865 366.12 71.5865C366.056 71.5865 365.993 71.585 365.93 71.5822Z" fill="#191847"/>
<path fill-rule="evenodd" clip-rule="evenodd" d="M406.498 241.316C388.253 246.419 372.512 248.97 359.275 248.97C346.038 248.97 333.743 245.041 322.39 237.184C340.243 231.947 354.947 229.328 366.5 229.328C378.053 229.328 391.386 233.324 406.498 241.316Z" fill="#1F28CF"/>
<path fill-rule="evenodd" clip-rule="evenodd" d="M343.481 256.324C343.657 256.06 343.806 255.772 343.924 255.46C346.362 249.012 385.424 179.447 389.316 166.729H345.338C342.379 176.398 329.062 237.082 327.188 249.189C321.274 268.287 309.099 330.138 307.545 334.423C305.91 338.931 315.11 343.627 317.561 338.085C321.462 329.268 330.756 304.87 334.895 289.972C338.775 276.006 341.934 263.442 343.481 256.324Z" fill="#BA8B72"/>
<path fill-rule="evenodd" clip-rule="evenodd" d="M379.462 264.817C397.32 269.33 462.643 277.489 467.125 278.769C471.737 280.085 475.78 270.582 470.08 268.523C461.011 265.247 436.02 257.679 420.869 254.59C408.681 252.106 397.561 250.079 390.094 248.892C390.727 227.922 393.618 177.598 391.723 166.729H352.81C354.628 177.151 369.991 253.201 372.846 260.814C373.752 263.531 376.456 264.732 379.462 264.817Z" fill="#D4A181"/>
<path fill-rule="evenodd" clip-rule="evenodd" d="M469.666 265.993C472.05 265.55 473.798 265.426 474.908 265.622C476.259 265.86 478.19 266.432 480.701 267.339C480.425 268.906 477.943 282.985 473.255 309.577C469.432 310.035 467.585 309.056 467.712 306.64C467.84 304.224 467.925 302.213 467.967 300.608L462.676 279.433C462.574 279.025 462.822 278.613 463.23 278.511C463.237 278.509 463.244 278.507 463.251 278.506L466.534 277.784C467.942 275.775 468.766 274.086 469.008 272.717C469.204 271.605 469.025 269.99 468.472 267.872L468.472 267.872C468.26 267.059 468.747 266.229 469.56 266.017C469.595 266.007 469.63 266 469.666 265.993Z" fill="#191847"/>
<path fill-rule="evenodd" clip-rule="evenodd" d="M320.353 337.368C321.203 339.639 321.629 341.338 321.629 342.465C321.629 343.837 321.4 345.838 320.943 348.468C319.353 348.468 305.054 348.468 278.048 348.468C276.934 344.784 277.577 342.794 279.979 342.501C282.38 342.207 284.375 341.942 285.964 341.705L305.901 332.818C306.285 332.647 306.734 332.819 306.906 333.203C306.908 333.209 306.911 333.216 306.914 333.223L308.196 336.331C310.419 337.368 312.225 337.887 313.615 337.887C314.745 337.887 316.304 337.431 318.294 336.519L318.294 336.519C319.058 336.169 319.961 336.504 320.311 337.267C320.326 337.3 320.34 337.334 320.353 337.368Z" fill="#191847"/>
<path fill-rule="evenodd" clip-rule="evenodd" d="M391.598 166.729C374.45 161.823 358.226 161.823 342.924 166.729C337.6 191.015 324.664 200.654 322.39 237.888C348.248 250.734 380.19 228.726 406.808 241.254C414.413 223.73 403.766 181.53 391.598 166.729Z" fill="#2B44FF"/>
<path fill-rule="evenodd" clip-rule="evenodd" d="M317.826 136.549L287.799 132.454C281.792 129.113 276.266 126.852 271.221 125.669C269.801 125.628 267.543 126.144 270.907 128.948C274.272 131.753 277.686 134.855 277.086 136.352C276.487 137.849 273.358 137.292 272.839 139.594C272.494 141.129 277.572 141.378 288.074 140.342L312.439 150L317.826 136.549ZM412.155 143.499L395.501 143.561C413.762 184.649 423.284 206.162 424.066 208.1C425.826 212.461 422.102 219.102 420.509 222.671C425.696 224.992 425.143 216.398 431.686 219.441C437.659 222.219 442.202 227.253 449.102 222.996C449.95 222.473 450.879 220.502 448.633 218.962C443.038 215.126 434.974 208.411 433.884 206.201C432.398 203.188 425.155 182.287 412.155 143.499Z" fill="#D4A181"/>
<path fill-rule="evenodd" clip-rule="evenodd" d="M366.539 90.688L353.499 91.5565C350.288 120.605 332.796 138.954 293.633 132.742L288.43 170.151C325.034 174.88 357.136 160.228 363.715 120.556C365.418 110.286 366.763 99.5984 366.539 90.688Z" fill="#AFB9C5"/>
<path fill-rule="evenodd" clip-rule="evenodd" d="M372.972 86.8979L353.215 91.4218C353.215 125.397 342.391 147.073 336.84 172.052H390.195C390.947 180.684 391.408 189.555 391.649 198.667H431.6C422.547 150.505 403.439 113.245 374.276 86.8857H372.982L372.972 86.8979Z" fill="#C5CFD6"/>
<path fill-rule="evenodd" clip-rule="evenodd" d="M381.777 123.583C383.152 144.754 382.344 160.91 379.351 172.053H390.195C388.706 154.954 386.079 138.797 381.777 123.583V123.583Z" fill="black" fill-opacity="0.1"/>
<path fill-rule="evenodd" clip-rule="evenodd" d="M139.46 62.5823C135.805 58.293 133.332 53.0364 133.745 47.1462C134.936 30.1749 158.564 33.9083 163.16 42.474C167.756 51.0397 167.21 72.7672 161.27 74.2981C158.901 74.9086 153.855 73.4131 148.718 70.3178L151.942 93.122H132.907L139.46 62.5823Z" fill="#B28B67"/>
<path fill-rule="evenodd" clip-rule="evenodd" d="M154.765 43.7159C152.181 45.1606 150.343 47.8678 148.13 51.4189C147.591 51.2071 147.004 51.0908 146.39 51.0908C143.762 51.0908 141.631 53.2211 141.631 55.849C141.631 57.183 142.18 58.3889 143.065 59.2528C141.964 60.8069 140.73 62.4303 139.315 64.1054C134.038 60.9398 130.113 51.7136 135.152 42.8069C139.487 24.9661 164.052 36.0397 168.778 33.0308C169.811 39.5049 166.479 44.7251 154.765 43.7159Z" fill="#191847"/>
<path fill-rule="evenodd" clip-rule="evenodd" d="M132.14 161.969L171.069 260.485L197.179 343.772H207.489L167.573 161.969L132.14 161.969Z" fill="#997659"/>
<path fill-rule="evenodd" clip-rule="evenodd" d="M124.301 161.969C123.886 196.588 117.841 243.197 116.875 245.355C116.231 246.794 94.0023 265.089 50.1885 300.241L57.2897 307.839C108.986 277.701 136.03 260.622 138.422 256.602C142.011 250.573 153.693 195.088 163.073 161.969H124.301Z" fill="#B28B67"/>
<path fill-rule="evenodd" clip-rule="evenodd" d="M49.2374 297.705C46.8526 298.548 45.2099 299.347 44.3091 300.103C43.2136 301.022 41.7681 302.546 39.9727 304.675C41.0393 305.946 50.6248 317.367 68.7294 338.938C72.4203 337.358 73.5782 335.511 72.2029 333.395C70.8275 331.28 69.702 329.509 68.8262 328.081L62.5603 306.198C62.4397 305.777 62.0006 305.533 61.5795 305.654C61.5723 305.656 61.5651 305.658 61.558 305.66L58.2156 306.72C55.8965 305.64 54.271 304.544 53.3392 303.434C52.5821 302.532 51.9008 300.981 51.2955 298.78L51.2955 298.78C51.0632 297.935 50.1901 297.439 49.3454 297.671C49.309 297.681 49.273 297.692 49.2374 297.705Z" fill="#191847"/>
<path fill-rule="evenodd" clip-rule="evenodd" d="M192.957 339.927C192.07 342.295 191.626 344.067 191.626 345.243C191.626 346.673 191.864 348.76 192.341 351.504C194 351.504 208.912 351.504 237.076 351.504C238.238 347.661 237.567 345.587 235.063 345.28C232.558 344.974 230.477 344.697 228.821 344.45L208.028 335.182C207.628 335.004 207.159 335.184 206.981 335.584C206.978 335.59 206.975 335.597 206.972 335.604L205.636 338.846C203.317 339.928 201.433 340.468 199.983 340.468C198.805 340.468 197.179 339.993 195.104 339.042L195.104 339.042C194.307 338.677 193.366 339.026 193 339.822C192.985 339.857 192.97 339.892 192.957 339.927Z" fill="#191847"/>
<path fill-rule="evenodd" clip-rule="evenodd" d="M158.314 335.194L207.334 329.874L171.004 161.969H127.099L158.314 335.194Z" fill="#69A1AC"/>
<path fill-rule="evenodd" clip-rule="evenodd" d="M60.3281 287.982L92.4824 326.037C126.35 289.053 146.095 264.921 151.717 253.64C157.339 242.36 162.393 211.803 166.879 161.969H117.449C114.999 205.811 113.347 228.752 112.494 230.792C111.641 232.832 94.2523 251.896 60.3281 287.982Z" fill="#89C5CC"/>
<path fill-rule="evenodd" clip-rule="evenodd" d="M203.701 152.383L227.011 174.973C233.793 177.847 239.35 181.02 243.682 184.493C244.656 185.661 245.717 187.897 241.133 186.896C236.55 185.895 231.683 185.047 230.822 186.528C229.96 188.009 232.499 190.278 230.907 192.216C229.845 193.508 226.276 189.399 220.198 179.888L195.959 165.691L203.701 152.383ZM89.7163 131.938L107.735 132.006C94.0113 176.175 86.7265 199.301 85.8802 201.385C83.9762 206.072 88.0054 213.211 89.7284 217.048C84.1165 219.542 84.7145 210.304 77.6352 213.576C71.1736 216.562 66.2582 221.973 58.7927 217.397C57.8749 216.834 56.8691 214.716 59.2992 213.061C65.3536 208.937 74.0783 201.719 75.2572 199.343C76.8647 196.103 81.6844 173.635 89.7163 131.938Z" fill="#B28B67"/>
<path fill-rule="evenodd" clip-rule="evenodd" d="M144.621 81.1607L151.737 79.9483C162.946 119.309 220.536 146.139 224.072 160.854C225.368 166.25 221.459 168.977 223.478 170.621L214.23 177.347C212.663 175.532 209.321 178.852 202.342 176.529C195.362 174.207 144.621 127.768 144.621 81.1607Z" fill="#DB2721"/>
<path fill-rule="evenodd" clip-rule="evenodd" d="M156.591 86.394C155.77 138.505 186.094 151.798 179.34 172.703C173.762 189.966 120.374 208.523 111.135 191.601C107.396 184.752 105.699 176.467 105.507 167.461C103.145 174.38 101.278 180.337 99.9044 185.331C97.5346 193.947 88.3475 195.317 88.3475 198.636L76.2436 195.317C77.0646 190.808 71.3585 188.612 72.8884 178.538C79.7435 133.401 98.1618 100.683 128.143 80.3836L128.46 75.8796C128.586 74.1333 130.101 72.8166 131.848 72.9351L154.248 74.4912C155.996 74.6098 157.315 76.125 157.193 77.8727C157.193 77.8737 157.193 77.8746 157.19 77.8754L156.591 86.394Z" fill="#FF4133"/>
</svg>
