<svg width="1369" height="1077" viewBox="0 0 1369 1077" fill="none" xmlns="http://www.w3.org/2000/svg">
<path d="M0.720953 477.824L0.720953 -233.559C0.720953 -349.301 1369 -233.559 1369 -233.559V521.673V1009C976.171 915.123 170.073 720.097 88.3167 691.007C-13.8783 654.645 0.720953 574.078 0.720953 477.824Z" fill="#FF9B21"/>
<path fill-rule="evenodd" clip-rule="evenodd" d="M1139.97 755.12C1146.23 751.755 1151.54 746.713 1153.75 739.604C1160.13 719.12 1130.67 712.682 1121.34 720.639C1112.02 728.596 1102.71 754.371 1108.98 758.891C1111.48 760.694 1118.1 761.249 1125.55 759.965L1111.31 785.278L1133.67 793.999L1139.97 755.12Z" fill="#B28B67"/>
<path fill-rule="evenodd" clip-rule="evenodd" d="M1138.61 714.012C1141.75 714.678 1149.81 717.44 1151.27 718.011C1152.21 718.376 1153.14 718.985 1154.03 718.342C1154.76 717.816 1155.05 716.562 1155.51 715.799C1156.03 714.912 1156.62 714.064 1157.21 713.218C1158.89 710.813 1160.85 708.666 1163.13 706.824C1167.42 703.369 1172.52 701.34 1178.03 701.152C1184.11 700.944 1190.21 702.731 1195.63 705.371C1201.44 708.196 1206.1 712.294 1211.03 716.365C1215.74 720.245 1221.12 723.148 1227.1 724.483C1233.12 725.827 1238.62 724.421 1244.56 723.366C1250.64 722.287 1257.01 722.517 1262.64 725.231C1267.9 727.765 1272.02 731.95 1275.33 736.686C1278.43 741.117 1280.58 745.83 1280.69 751.326C1280.8 757.239 1278.62 762.829 1273.41 765.983C1265.86 770.554 1255.9 768.616 1248.23 765.432C1243.8 763.59 1239.72 761.06 1236.08 757.928C1231.22 753.75 1227.66 748.494 1223.45 743.714C1221.48 741.471 1219.33 739.424 1216.95 737.623C1214.64 735.875 1212.21 734.539 1209.24 735.192C1206.1 735.882 1203.23 736.644 1199.98 736.573C1196.86 736.505 1193.75 735.934 1190.84 734.776C1185.19 732.522 1180.3 728.579 1175.26 725.251C1171.15 722.537 1166.72 719.704 1161.79 718.846C1159.73 718.489 1156.63 718.2 1155.16 719.914C1165.95 726.543 1164.91 742.67 1157.53 751.929C1153.54 756.926 1140.34 759.433 1137.38 754.835C1135.5 751.921 1138.06 750.054 1139.73 748.814C1142.92 746.438 1145.17 742.664 1142.38 739.056C1139.98 735.944 1134.93 739.138 1134.87 739.109C1134.03 738.705 1128.22 731.58 1125.48 723.424C1120.3 721.748 1120.83 718.106 1123.11 715.846C1125.39 713.585 1134.28 713.092 1138.61 714.012Z" fill="#191847"/>
<path fill-rule="evenodd" clip-rule="evenodd" d="M918.161 973.627C940.403 951.863 958.008 932.225 966.207 921.439C980.246 902.97 991.892 886.443 995.697 880.058C1004.77 864.834 981.492 854.662 975.21 861.537C965.701 871.942 941.744 908.97 908.109 965.893L918.161 973.627ZM1088.96 944.719C1079.7 936.118 1046.63 907.611 1029.62 896.563C1024.74 893.389 1019.99 890.356 1015.5 887.542C1002.18 879.178 984.587 902.243 997.675 909.647C1030.27 928.086 1077.23 952.313 1081.19 954.523C1086.75 957.62 1094.78 950.124 1088.96 944.719Z" fill="#B28B67"/>
<path fill-rule="evenodd" clip-rule="evenodd" d="M1009.45 876.948L1080.46 869.897L1083.02 863.332L1075.97 860.584C1012.96 852.834 980.026 850.771 977.16 854.394C977.129 854.433 977.1 854.472 977.071 854.512C977.027 854.539 976.984 854.566 976.941 854.593C959.491 865.784 922.944 939.392 918.484 944.232L938.983 955.968C959.35 928.342 994.375 917.224 1008.09 879.972C1008.7 878.962 1009.15 877.952 1009.45 876.948Z" fill="#1F28CF"/>
<path fill-rule="evenodd" clip-rule="evenodd" d="M1056.79 916.044C1062.63 917.073 1068 918.052 1072.56 918.968C1102.04 924.89 1115.84 913.259 1123.66 879.182L1072.82 859.356C1063.59 858.502 1013.38 859.768 987.234 860.661C969.93 861.252 965.644 886.039 971.705 895.288C971.608 895.673 971.662 895.981 971.887 896.197C1009.73 932.514 1049.27 936.625 1059.98 944.415L1072.29 929.161L1056.79 916.044Z" fill="#2B44FF"/>
<path fill-rule="evenodd" clip-rule="evenodd" d="M1086.3 940.491C1089.14 941.928 1091.07 943.191 1092.07 944.281C1093.3 945.606 1094.86 947.744 1096.77 950.694C1095.23 952.112 1081.41 964.86 1055.31 988.938C1050.95 986.371 1049.8 983.874 1051.85 981.449C1053.91 979.024 1055.6 976.989 1056.93 975.343L1068.27 948.978C1068.49 948.471 1069.08 948.236 1069.59 948.455C1069.6 948.458 1069.6 948.462 1069.61 948.466L1073.62 950.328C1076.7 949.348 1078.9 948.239 1080.25 947C1081.34 945.993 1082.44 944.161 1083.55 941.506L1083.55 941.506C1083.98 940.486 1085.15 940.006 1086.17 940.431C1086.21 940.45 1086.25 940.47 1086.3 940.491Z" fill="#E4E4E4"/>
<path fill-rule="evenodd" clip-rule="evenodd" d="M925.504 970.847C925.461 974.036 925.17 976.321 924.632 977.703C923.976 979.383 922.74 981.725 920.923 984.73C918.974 983.97 901.459 977.138 868.377 964.235C868.772 959.188 870.511 957.059 873.593 957.846C876.676 958.634 879.246 959.262 881.305 959.731L909.975 958.369C910.527 958.343 910.995 958.768 911.022 959.32C911.022 959.33 911.022 959.339 911.022 959.348L911.107 963.769C913.335 966.102 915.3 967.6 917.003 968.265C918.386 968.804 920.515 968.991 923.388 968.824L923.388 968.824C924.491 968.76 925.437 969.602 925.501 970.705C925.504 970.752 925.505 970.8 925.504 970.847Z" fill="#E4E4E4"/>
<path fill-rule="evenodd" clip-rule="evenodd" d="M1035.21 815.292L1007.23 787.3C1003.61 779.101 999.651 772.395 995.339 767.182C993.897 766.015 991.145 764.76 992.437 770.315C993.728 775.87 994.837 781.771 993.039 782.84C991.24 783.908 988.427 780.857 986.08 782.821C984.515 784.13 989.594 788.406 1001.32 795.651L1019.04 824.897L1035.21 815.292ZM1170.09 872.606L1149.52 868.947C1154.77 912.216 1157.67 935.195 1158.22 937.885C1159.47 943.938 1153.1 951.65 1150.2 955.891C1156.36 960.112 1157.66 948.868 1165.41 954.343C1172.48 959.341 1177.17 966.919 1187.1 963.037C1188.32 962.56 1189.98 960.231 1187.44 957.711C1181.11 951.434 1172.26 940.854 1171.37 937.739C1170.15 933.492 1169.73 911.781 1170.09 872.606Z" fill="#B28B67"/>
<path fill-rule="evenodd" clip-rule="evenodd" d="M1126.97 773.494L1119.45 768.97C1095.27 779.148 1072.16 817.248 1058.35 818.1C1045.3 818.906 1031.56 807.841 1015.54 793.888L1004.86 804.409C1014.65 829.324 1044.67 858.859 1062.73 855.728C1091.61 850.722 1116.68 802.39 1126.97 773.494Z" fill="#DB2721"/>
<path fill-rule="evenodd" clip-rule="evenodd" d="M1122.6 888.431C1090.3 875.833 1066.54 866.565 1051.32 860.63C1048.06 859.359 1050.51 854.895 1051.91 852.706C1068.03 827.434 1100.75 806.182 1115.96 767.192L1137.78 771.987C1144.12 805.972 1136.87 841.941 1122.6 888.431Z" fill="#DDE3E9"/>
<path fill-rule="evenodd" clip-rule="evenodd" d="M1140.53 863.472C1144.84 895.351 1149.69 918.986 1155.09 934.377L1171.17 937.278C1184.83 873.836 1174.14 818.911 1139.11 772.505L1135.4 771.057L1130.97 769.329C1087.97 825.05 1066.53 864.99 1066.65 889.147L1130.81 914.173C1135.77 898.464 1138.83 881.001 1140.53 863.472L1140.53 863.472Z" fill="#FF4133"/>
<path d="M1072 692.5C1072 692.5 1058.75 655.494 1028 630C997.253 604.506 981.507 599.466 953.759 592.626C926.011 585.786 903.512 585.164 903.512 585.164C903.512 585.164 847.703 582.832 816.518 595.735C771.441 614.386 746.29 642.493 759.522 677.817C770.069 705.971 797.094 720.534 832.267 723.21C860.498 725.359 875.488 711.838 903.512 708.287C925.225 705.535 943.241 705.84 965.008 708.287C986.058 710.653 1012.25 720.101 1012.25 720.101L1079 740C1079 740 1087 726.741 1072 692.5Z" fill="white" stroke="white"/>
</svg>
