<svg width="11" height="11" viewBox="0 0 11 11" fill="none" xmlns="http://www.w3.org/2000/svg">
<path d="M10.7403 0.258706C10.3521 -0.12953 9.76974 -0.12953 9.3815 0.258706L5.49915 4.14106L1.6815 0.258706C1.29327 -0.0648236 0.646209 -0.0648236 0.257973 0.258706C-0.130262 0.582235 -0.130262 1.22929 0.257973 1.61753L4.07562 5.43518L0.257973 9.25282C-0.130262 9.64106 -0.130262 10.2234 0.257973 10.6116C0.452091 10.9352 0.710914 10.9999 0.969738 10.9999C1.22856 10.9999 1.48738 10.9352 1.6815 10.7411L5.49915 6.92341L9.3168 10.7411C9.51091 10.9352 9.76974 10.9999 10.0286 10.9999C10.2874 10.9999 10.5462 10.9352 10.7403 10.7411C11.1286 10.3528 11.1286 9.77047 10.7403 9.38224L6.92268 5.56459L10.7403 1.74694C11.0639 1.294 11.0639 0.646941 10.7403 0.258706Z" fill="white"/>
</svg>
