<?xml version="1.0" encoding="utf-8"?>
<!-- Generator: Adobe Illustrator 24.0.0, SVG Export Plug-In . SVG Version: 6.00 Build 0)  -->
<svg version="1.1" id="Layer_1" xmlns="http://www.w3.org/2000/svg" xmlns:xlink="http://www.w3.org/1999/xlink" x="0px" y="0px"
	 viewBox="0 0 1681.8 176.4" style="enable-background:new 0 0 1681.8 176.4;" xml:space="preserve">
<style type="text/css">
	.st0{fill:#DFC6FF;}
	.st1{fill-rule:evenodd;clip-rule:evenodd;fill:#915B3C;}
	.st2{fill-rule:evenodd;clip-rule:evenodd;fill:#191847;}
	.st3{fill-rule:evenodd;clip-rule:evenodd;fill:#2F3676;}
	.st4{fill-rule:evenodd;clip-rule:evenodd;fill:#E4E4E4;}
	.st5{fill-rule:evenodd;clip-rule:evenodd;fill:#5C63AB;}
	.st6{fill-rule:evenodd;clip-rule:evenodd;fill:#2026A2;}
	.st7{fill-rule:evenodd;clip-rule:evenodd;fill:#1F28CF;}
	.st8{fill-rule:evenodd;clip-rule:evenodd;fill:#2B44FF;}
	.st9{fill-rule:evenodd;clip-rule:evenodd;fill:#B28B67;}
	.st10{fill-rule:evenodd;clip-rule:evenodd;fill:#E87613;}
	.st11{fill-rule:evenodd;clip-rule:evenodd;fill:#DDE3E9;}
	.st12{fill-rule:evenodd;clip-rule:evenodd;fill:#FF9B21;}
	.st13{fill-rule:evenodd;clip-rule:evenodd;fill-opacity:0.1;}
</style>
<g>
	<g>
		<path class="st0" d="M1681.8,81.9H99.8c-53.4,0-97,41.8-99.8,94.5h1681.8V81.9z"/>
	</g>
	<path class="st1" d="M299.2,19.4c2-2.4,3.4-5.3,3.2-8.5c-0.7-9.4-13.7-7.3-16.3-2.6c-2.5,4.7-2.2,16.8,1,17.6
		c1.3,0.3,4.1-0.5,6.9-2.2l-1.8,12.6h10.5L299.2,19.4z"/>
	<path class="st2" d="M295.6,14.3c0.3-0.2,0.8-0.4,1.2-0.4c1.2,0,2.2,1.1,2.2,2.2c0,1.2-0.5,2.1-1.3,2.4c0.4,0.8,0.8,1.4,1.3,1.5
		c1.9-0.2,4.4-4.9,4.4-8.8c0-4.2-3.4-7.9-9.7-7.9c-5.6,0-7.8,2.3-7.9,4.4c2.4,0.7,6.6,0.9,12.7,0.9v0.4l-5.3,0.4l-0.9,2.6
		C293.8,12,294.8,13,295.6,14.3z"/>
	<path class="st1" d="M248.6,73c-3.1-2.3-8.9-0.3-9.2,2.5c-0.8,8.5,3,49.5,3.1,52.1c0.2,2.6,4.4,3.7,5,0.5
		c0.9-5.1,3.4-22.6,3.5-30.9c0-3.4,0-6.6,0-9.5c3.4,7.8,8.6,19,15.8,33.5l4.8-1.7c-2.5-12.4-4.6-21.1-6.4-26.3
		c-3.2-8.9-6.2-16.5-7.5-19.2C255.5,69.8,251.1,70.8,248.6,73z"/>
	<path class="st3" d="M271.9,112.9l-12.2-39.3c-3.2-6.5-14.6-0.2-13.7,3.5c2.2,8.4,14.6,36,15.2,38.5L271.9,112.9z"/>
	<path class="st4" d="M272.3,117.2c0.9,0.9,1.5,1.6,1.7,2.2c0.3,0.7,0.6,1.7,1,3.1c-0.8,0.3-7.7,3.5-20.8,9.4
		c-1.3-1.5-1.5-2.6-0.4-3.3c1.1-0.7,2-1.2,2.7-1.7l7.7-8.7c0.1-0.2,0.4-0.2,0.6,0c0,0,0,0,0,0l1.3,1.2c1.3,0,2.3-0.1,3-0.4
		c0.5-0.2,1.2-0.8,2-1.7l0,0C271.5,116.9,272,116.9,272.3,117.2C272.3,117.2,272.3,117.2,272.3,117.2z"/>
	<path class="st4" d="M248.7,126.1c0.3,1.2,0.5,2.2,0.4,2.8c-0.1,0.7-0.3,1.8-0.7,3.1c-0.8-0.1-8.4-0.8-22.7-2.2c-0.4-2,0-3,1.3-3.1
		c1.3,0,2.4-0.1,3.2-0.1l11-3.7c0.2-0.1,0.4,0,0.5,0.3c0,0,0,0,0,0l0.5,1.7c1.1,0.7,2.1,1,2.8,1.1c0.6,0.1,1.4-0.1,2.6-0.5l0,0
		C248.1,125.4,248.5,125.7,248.7,126.1C248.7,126.1,248.7,126.1,248.7,126.1z"/>
	<path class="st5" d="M237.9,78.3c-1.1,10.7,1.6,36.2,1.3,38.5l10.9,1.1c0.6-22.4,1.1-33.7,1.6-33.9c0.7-0.3,28.3,5.6,36.7,6.4
		c12.1,1.2,17.8-5.9,19.6-20l-23.9-2.4c-4.9,0-30.8,2.7-40.4,3.5C239.7,71.9,238.2,75.4,237.9,78.3z"/>
	<path class="st1" d="M283,42.6l-13.2-9c-2.1-3-4.1-5.4-6.2-7.1c-0.7-0.4-1.8-0.6-0.9,1.5c0.9,2.1,1.8,4.4,1.2,4.9
		c-0.6,0.6-2-0.4-2.8,0.5c-0.5,0.6,1.8,2,7,4l9.2,10.3L283,42.6z M260.5,46.9l-5.8-4c-0.5-3.4-1.4-5.1-2.6-5.3
		c-0.9-0.5,0.3,3.8-1.4,3.3c-1.7-0.5-5.7-4.1-6.5-3.6c-1.2,0.8-0.5,3.9,0.5,5.4c1.9,2.9,3.5,4,7.8,5.7c2.2,0.9,4.6,2.4,7,4.6
		L260.5,46.9z"/>
	<path class="st6" d="M290,41.6c-4.9-0.5-11.3-2.2-17.9-7.3l-3.3,5.8c4.3,5.2,10.7,9.8,16.6,10.3C290.1,50.7,293,45.3,290,41.6z"/>
	<path class="st7" d="M282.4,50.7c-5.3,0.8-13.9-1.6-25.7-7.2c-3.7,6-5.5,10.3-5.5,13c10,6.5,18.7,9.9,26.1,10.8
		c-0.7,4.4-0.5,8.6,0.9,12.6c2.9,8.2,25.3,3.1,32.4,5.2c6-14.4-2.2-21.2-1.3-30.7c1-10.4-5.7-27.2-7-27.3L291.2,26
		C289.8,33.9,285.8,42.3,282.4,50.7z"/>
	<path class="st7" d="M179.9,110.9l10.5-37.1c2.9-6.2,13.7-0.5,12.9,3c-1.8,7.9-12.9,34.1-13.4,36.4L179.9,110.9z"/>
	<path class="st8" d="M211,77.8c1.2,10-0.6,33.9-0.4,36.1l-10.2,1.3c-1.1-21-1.8-31.6-2.3-31.8c-0.7-0.3-26.4,5.9-34.3,6.9
		C152.5,91.7,147,85.1,145,72l22.4-2.8c4.6-0.1,29,1.8,38,2.4C209.2,71.8,210.7,75,211,77.8z"/>
	<path class="st9" d="M145.9,21.3c-2.1-1.9-3.6-4.4-3.8-7.3c-0.4-8.5,11.5-8.1,14.3-4.1s3.9,14.8,1,15.9c-1.1,0.4-3.7,0-6.5-1.2
		l3,11.1l-9.4,1.2L145.9,21.3z"/>
	<path class="st2" d="M159.9,3.4c-0.3-0.7-0.9-1.2-1.6-1.3c-0.2,0-0.4,0-0.5,0c-0.1,0-0.1,0-0.1,0c0,0,0-0.1,0-0.1
		c0-0.1-0.1-0.2-0.2-0.3c-0.2-0.4-0.5-0.7-0.8-1C156,0.3,155.2,0,154.4,0c-0.4,0-0.9,0.1-1.2,0.3c-0.2,0.1-0.4,0.2-0.6,0.3
		c-0.1,0-0.2,0.2-0.3,0.2c-0.1,0-0.2-0.2-0.3-0.2c-0.7-0.4-1.6-0.5-2.4-0.4c-0.9,0.1-1.8,0.3-2.6,1c-0.2,0.1-0.3,0.3-0.4,0.5
		c-0.1,0.1-0.1,0.2-0.2,0.3c0,0.1-0.1,0.1-0.1,0.2c-0.1,0.1,0,0.1-0.2,0.1c-0.4-0.2-0.9-0.2-1.3-0.1c-0.3,0.1-0.5,0.2-0.7,0.3
		c-0.1,0-0.3,0.2-0.3,0.2c-0.1,0-0.3-0.1-0.4-0.1c-0.5-0.1-1-0.1-1.5,0c-0.5,0.1-1,0.4-1.4,0.8c-0.2,0.2-0.4,0.3-0.5,0.6
		c-0.1,0.1-0.1,0.2-0.2,0.3c0,0.1-0.1,0.1-0.1,0.2c0,0-0.6-0.2-0.7-0.2c-0.3,0-0.6,0-0.9,0.1c-0.5,0.2-0.9,0.7-1.3,1.2
		c-0.2,0.2-0.3,0.5-0.4,0.8c-0.1,0.1-0.1,0.3-0.1,0.4c0,0.1,0,0.1-0.1,0.2c0,0.1-0.1,0.1-0.2,0.1c-0.4,0.2-0.8,0.5-1.1,0.9
		c-0.3,0.4-0.4,0.9-0.4,1.3c0,0,0,0.1,0,0.2c0,0-0.1,0-0.1,0c-0.1,0-0.2,0.1-0.3,0.1c-0.2,0.1-0.4,0.2-0.6,0.3
		c-0.7,0.5-1.2,1.2-1.3,2.1c-0.2,0.9-0.1,1.8,0.4,2.6c0.1,0.1,0.2,0.2,0.2,0.4c0.1,0.1,0.1,0.1,0.1,0.1c0,0.1-0.1,0.2-0.1,0.3
		c-0.1,0.3-0.2,0.6-0.2,0.9c0,0.5,0,1,0.1,1.5c0.1,0.2,0.2,0.4,0.3,0.6c0.1,0.1,0.2,0.2,0.2,0.3c0,0,0.1,0.1,0.1,0.1
		c0,0,0.1,0,0.1,0.1c0.1,0.1,0.1,0,0.1,0.1c0,0.1-0.1,0.3-0.1,0.4c0,0.1-0.1,0.3-0.1,0.4c-0.1,0.3-0.1,0.6-0.1,0.9
		c0,0.6,0.1,1.2,0.4,1.7c0.1,0.2,0.3,0.4,0.6,0.5c0.1,0.1,0.2,0.1,0.3,0.2c0.1,0,0.1,0,0.2,0.1c0,0.1,0,0.2,0,0.2
		c0,0.6,0,1.2,0.3,1.8c0.2,0.5,0.6,0.9,1.1,1.2c1,0.5,2.2,0.3,3-0.3c0.2-0.2,0.4-0.3,0.6-0.5c0.6,0.6,1.7,0.5,2.4,0.2
		c0.9-0.4,1.6-1.1,1.9-2c0.7,0.7,1.9,0.3,2.2-0.6c0.1-0.2,0.1-0.4,0.1-0.6c0-0.1,0-0.2,0-0.3c0-0.1,0.1-0.3,0.1-0.4
		c0.1-0.3,0.1-0.6,0.1-0.9c0-0.2-0.1-0.3-0.1-0.4c0-0.1,0-0.3,0-0.4c-0.2,0.1-0.5,0-0.8,0c-0.2,0-0.5-0.2-0.6-0.3
		c-0.4-0.3-0.7-0.8-0.9-1.3c-0.5-1.1-0.5-2.4,0.5-3.1c0.5-0.3,2-0.5,2.7-0.5c0.7,0.1,1.6,1.4,1.6,1.5c0,0.1,0,0.2,0.1,0.2
		c0.2,0.1,0.4-0.1,0.5-0.3c0.2-0.2,0.3-0.5,0.4-0.7c0.2-0.6,0.4-1.2,0.5-1.8c0.1-0.5,0.1-0.9,0.2-1.4c0.1-0.5,0.3-0.9,0.7-1.2
		c0.4-0.3,0.9-0.5,1.3-0.7c0.5-0.2,0.9-0.5,1.2-0.9c0.1-0.1,0.1-0.2,0.2-0.3c0-0.1,0.1-0.2,0.1-0.3c0.1-0.1,0.3,0.1,0.4,0.1
		c0.6,0.3,1,0.7,1.5,1.1c0.4,0.5,0.8,0.9,1.1,1.4c0.2,0.4,0.4,0.9,0.7,1.2c0.2,0.1,1.2,0.1,1.5-0.1c0.3-0.2,0.6-0.6,0.7-0.8
		c0.1-0.2,0.1-0.5,0-0.7c0-0.1-0.1-0.3-0.2-0.4c0-0.1-0.1-0.2-0.1-0.3c-0.1-0.2-0.3-0.3-0.6-0.3c0.2-0.2,0.4-0.5,0.5-0.8
		c0.1-0.3,0.2-0.7,0.2-1c0-0.3-0.1-0.5-0.3-0.7c-0.2-0.2-0.5-0.3-0.7-0.5c0.3-0.3,0.6-0.7,0.8-1.1C160.1,5.2,160.3,4.3,159.9,3.4z"
		/>
	<path class="st2" d="M177,118.1l2.8-7.8l8,2.4c3,3.8,7.3,7.4,12.9,10.9l-0.5,1.5l-14.4-4.3l-4.7-2.2l-0.2,0.8L177,118.1z"/>
	<path class="st2" d="M201.4,123.5l-0.6-8.3l8.3-1c4.3,2.3,9.6,3.9,16.1,4.8l0.2,1.6l-14.9,1.8l-5.2-0.2l0.1,0.8L201.4,123.5z"/>
	<path class="st9" d="M178.1,60.6l13.7,7.7c3.5,0.5,6.5,1.3,8.9,2.4c0.6,0.4,1.4,1.3-0.9,1.4c-2.3,0.1-4.6,0.3-4.8,1.1
		c-0.2,0.8,1.2,1.5,0.8,2.6c-0.3,0.7-2.5-0.7-6.5-4.4l-13-3.6L178.1,60.6z M130.1,66.9l8.2-1c-3.1,17-4.7,26-5,27.1
		c-0.6,2.4,1.7,5.6,2.8,7.3c-2.5,1.5-2.8-2.9-6-1c-2.9,1.8-4.9,4.7-8.8,2.9c-0.5-0.2-1.1-1.2,0-2.1c2.6-2.3,6.4-6.3,6.8-7.5
		C128.7,90.9,129.3,82.4,130.1,66.9z"/>
	<path class="st10" d="M149.1,29.5l3.3-1c13.9,9.3,21.7,29.6,38.5,38.8l-3.2,5.1C160.6,72.4,150.8,47.7,149.1,29.5z"/>
	<path class="st11" d="M139.6,74.1c13.6-1.7,23.6-2.9,30.1-3.7c1.4-0.2,0.9-2.1,0.5-3.1C166.5,56,156,44.6,154,28.2l-8.8-0.3
		C139.4,40.3,138.7,54.8,139.6,74.1z"/>
	<path class="st12" d="M135.7,40.6c-1.3-0.2-2.4-0.9-3.3-2.2c-3.9-5.3-3.1-8.6,0.1-10.1c3.3-1.5,6.5,0.3,11.9-0.4
		c0.3,0,0.6-0.1,0.8,0l2.7-0.2c11,25.4,15.4,42.8,13,52l-23.7,2.9c-1,3.4-2,6.4-3,8.7l-6.4,0.8C124.9,72.7,127.5,55.5,135.7,40.6z"
		/>
	<path class="st13" d="M140.8,68.5c1.5,6.1,3.3,10.5,5.3,13.1l-8.8,1.1C138.5,78.7,139.7,74,140.8,68.5L140.8,68.5z"/>
</g>
</svg>
