<?xml version="1.0" encoding="utf-8"?>
<!-- Generator: Adobe Illustrator 24.0.0, SVG Export Plug-In . SVG Version: 6.00 Build 0)  -->
<svg version="1.1" id="Layer_1" xmlns="http://www.w3.org/2000/svg" xmlns:xlink="http://www.w3.org/1999/xlink" x="0px" y="0px"
	 viewBox="0 0 1680 311.7" style="enable-background:new 0 0 1680 311.7;" xml:space="preserve">
<style type="text/css">
	.st0{fill:#1F28CF;}
	.st1{fill-rule:evenodd;clip-rule:evenodd;fill:#2F3676;}
	.st2{fill-rule:evenodd;clip-rule:evenodd;fill:#5B63AE;}
	.st3{fill-rule:evenodd;clip-rule:evenodd;fill:#B28B67;}
	.st4{fill-rule:evenodd;clip-rule:evenodd;fill:#191847;}
	.st5{fill-rule:evenodd;clip-rule:evenodd;fill:#E87613;}
	.st6{fill-rule:evenodd;clip-rule:evenodd;fill:#DDE3E9;}
	.st7{fill-rule:evenodd;clip-rule:evenodd;fill:#FF9B21;}
	.st8{fill-rule:evenodd;clip-rule:evenodd;fill-opacity:0.1;}
	.st9{fill-rule:evenodd;clip-rule:evenodd;fill:#DB2721;}
	.st10{fill-rule:evenodd;clip-rule:evenodd;fill:#FF4133;}
	.st11{fill-rule:evenodd;clip-rule:evenodd;fill:#E4E4E4;}
	.st12{fill-rule:evenodd;clip-rule:evenodd;fill:#2026A2;}
	.st13{fill-rule:evenodd;clip-rule:evenodd;fill:#F2F2F2;}
	.st14{fill-rule:evenodd;clip-rule:evenodd;fill:#1F28CF;}
</style>
<g>
	<path class="st0" d="M-8.3,313.7c16-20,38.4-37,69.8-49.2C148.3,230.9,1177,94.8,1680.5,31l-0.5,282.7H-8.3"/>
	<path class="st1" d="M255.7,281.4l22.8-80.2c6.2-13.4,29.6-1.1,27.9,6.4c-4,17.1-27.8,73.7-29,78.8L255.7,281.4z"/>
	<path class="st2" d="M322.8,209.8c2.7,21.6-1.4,73.4-0.8,78.1l-22.1,2.7c-2.3-45.4-4-68.3-5-68.7c-1.5-0.6-57.2,12.8-74.1,14.9
		c-24.4,3-36.4-11.1-40.7-39.6l48.4-6c10-0.2,62.6,3.9,82.1,5.1C318.9,196.9,322,203.8,322.8,209.8z"/>
	<path class="st3" d="M182.2,87.6c-4.5-4.1-7.8-9.4-8.2-15.8c-1-18.3,24.8-17.4,30.9-8.9c6.1,8.6,8.3,31.9,2.2,34.3
		c-2.5,1-8.1,0-14-2.6l6.5,24l-20.4,2.5L182.2,87.6z"/>
	<path class="st4" d="M212.3,49.1c-0.6-1.4-1.9-2.6-3.5-2.7c-0.4,0-0.8,0-1.1,0c-0.1,0-0.2,0.1-0.2,0c-0.1-0.1-0.1-0.2-0.1-0.3
		c-0.1-0.3-0.2-0.5-0.3-0.7c-0.4-0.8-1.1-1.5-1.8-2.1c-1.4-1-3.1-1.7-4.8-1.6c-0.9,0-1.8,0.3-2.7,0.7c-0.4,0.2-0.9,0.5-1.3,0.7
		c-0.1,0.1-0.5,0.5-0.6,0.4c-0.1,0-0.5-0.3-0.6-0.4c-1.6-0.9-3.4-1.1-5.2-0.9c-2,0.3-4,0.6-5.5,2.1c-0.3,0.3-0.6,0.6-0.9,1
		c-0.2,0.2-0.3,0.4-0.4,0.6c-0.1,0.1-0.2,0.2-0.2,0.4c-0.1,0.2-0.1,0.3-0.3,0.2c-0.9-0.4-1.8-0.5-2.8-0.3c-0.6,0.1-1.1,0.4-1.6,0.7
		c-0.2,0.1-0.5,0.5-0.7,0.5c-0.2,0-0.6-0.2-0.8-0.3c-1.1-0.3-2.2-0.2-3.3,0.1c-1.1,0.3-2.2,0.9-3.1,1.7c-0.4,0.4-0.8,0.7-1.1,1.2
		c-0.1,0.2-0.2,0.4-0.4,0.6c-0.1,0.1-0.2,0.2-0.3,0.4c0-0.1-1.3-0.4-1.4-0.4c-0.7-0.1-1.3,0-1.9,0.3c-1.1,0.5-2,1.5-2.8,2.5
		c-0.4,0.5-0.7,1.1-0.9,1.6c-0.1,0.3-0.2,0.6-0.3,0.8c0,0.1-0.1,0.3-0.1,0.4c-0.1,0.2-0.2,0.2-0.3,0.3c-0.9,0.5-1.7,1.1-2.3,2
		c-0.6,0.9-0.9,1.9-1,2.9c0,0.1,0,0.3,0,0.3c0,0.1-0.2,0.1-0.3,0.1c-0.2,0.1-0.5,0.1-0.7,0.2c-0.4,0.2-0.9,0.4-1.3,0.6
		c-1.5,1-2.5,2.7-2.9,4.5c-0.4,1.9-0.1,3.9,0.8,5.6c0.2,0.3,0.3,0.5,0.5,0.8c0.1,0.1,0.2,0.1,0.1,0.3c-0.1,0.2-0.2,0.4-0.2,0.6
		c-0.2,0.6-0.3,1.3-0.4,2c-0.1,1.1,0,2.2,0.3,3.3c0.2,0.5,0.4,1,0.7,1.4c0.2,0.2,0.3,0.4,0.5,0.6c0.1,0.1,0.2,0.2,0.3,0.3
		c0.1,0,0.1,0.1,0.2,0.1c0.1,0.1,0.1,0,0.1,0.2c0,0.3-0.2,0.6-0.3,0.9c-0.1,0.3-0.1,0.6-0.2,1c-0.1,0.6-0.2,1.3-0.2,2
		c0,1.3,0.2,2.6,0.9,3.7c0.3,0.5,0.7,0.8,1.2,1.1c0.2,0.1,0.5,0.2,0.7,0.3c0.1,0,0.3,0,0.4,0.2c0.1,0.1,0,0.4,0,0.5
		c0,1.3,0,2.6,0.6,3.8c0.5,1.1,1.4,2,2.4,2.6c2.1,1.1,4.7,0.7,6.5-0.6c0.5-0.3,0.9-0.7,1.3-1.2c1.3,1.4,3.6,1,5.2,0.4
		c2-0.8,3.4-2.4,4.1-4.4c1.5,1.4,4.1,0.6,4.8-1.2c0.2-0.4,0.2-0.9,0.2-1.4c0-0.2,0-0.5-0.1-0.7c0-0.3,0.2-0.6,0.2-0.9
		c0.2-0.6,0.2-1.2,0.2-1.9c0-0.3-0.1-0.6-0.2-1c-0.1-0.3,0-0.6,0-0.9c-0.5,0.2-1.2,0.1-1.7,0c-0.5-0.1-1-0.4-1.4-0.7
		c-0.9-0.7-1.5-1.8-2-2.8c-1-2.3-1.1-5.2,1.2-6.8c1-0.7,4.4-1.2,5.7-1c1.4,0.1,3.4,3,3.5,3.3c0.1,0.2,0.1,0.4,0.3,0.5
		c0.4,0.2,0.9-0.3,1.2-0.6c0.4-0.4,0.7-1,0.9-1.6c0.5-1.2,0.8-2.5,1-3.8c0.2-1,0.2-2,0.4-3c0.2-1,0.7-1.9,1.5-2.5
		c0.9-0.7,1.9-1.1,2.9-1.6c1-0.5,1.9-1,2.6-1.9c0.2-0.2,0.3-0.4,0.4-0.6c0.1-0.2,0.2-0.5,0.3-0.6c0.2-0.2,0.7,0.2,0.9,0.3
		c1.2,0.6,2.3,1.5,3.2,2.4c0.9,1,1.6,1.9,2.3,3.1c0.5,0.8,0.9,2,1.6,2.6c0.3,0.3,2.5,0.2,3.2-0.2c0.7-0.4,1.4-1.2,1.5-1.7
		c0.2-0.5,0.2-1,0-1.5c-0.1-0.3-0.3-0.6-0.4-0.9c-0.1-0.2-0.2-0.5-0.3-0.7c-0.3-0.4-0.7-0.7-1.2-0.7c0.4-0.5,0.8-1.1,1-1.8
		c0.2-0.7,0.4-1.5,0.4-2.2c0-0.6-0.2-1.2-0.5-1.6c-0.4-0.5-1-0.7-1.6-1c0.7-0.7,1.3-1.5,1.7-2.4C212.7,53,213.1,51,212.3,49.1z"/>
	<path class="st4" d="M249.4,297l6-17l17.2,5.2c6.4,8.2,15.7,16,27.8,23.5l-1,3.3l-31.1-9.3l-10.2-4.8l-0.5,1.6L249.4,297z"/>
	<path class="st4" d="M302.1,308.6l-1.3-17.9l17.8-2.2c9.2,4.9,20.8,8.4,34.9,10.4l0.4,3.4l-32.3,4l-11.2-0.3l0.2,1.7L302.1,308.6z"
		/>
	<path class="st3" d="M251.7,172.7l29.5,16.6c7.6,1.1,14,2.8,19.3,5.1c1.3,0.9,3,2.9-1.9,3.1c-4.9,0.2-10,0.7-10.5,2.4
		c-0.5,1.7,2.7,3.3,1.6,5.7c-0.7,1.6-5.4-1.6-14.1-9.6l-28.2-7.8L251.7,172.7z M147.8,186.2l17.8-2.1c-6.6,36.7-10.2,56.2-10.8,58.5
		c-1.4,5.1,3.7,12,6,15.8c-5.5,3.3-6-6.4-12.9-2.1c-6.3,3.9-10.7,10.2-19,6.4c-1-0.5-2.3-2.5,0-4.6c5.7-5.1,13.8-13.7,14.7-16.3
		C144.8,238.2,146.2,219.7,147.8,186.2z"/>
	<path class="st5" d="M189.1,105.5l7.2-2.2c30.1,20.2,46.9,64,83.3,83.8l-6.8,11C213.9,198.1,192.7,144.7,189.1,105.5z"/>
	<path class="st6" d="M168.4,201.7c29.4-3.6,51.1-6.3,65-8c3-0.4,1.9-4.6,1.2-6.7c-8-24.4-30.7-48.9-35.1-84.4l-19.1-0.6
		C168,128.8,166.4,160.2,168.4,201.7z"/>
	<path class="st7" d="M160.1,129.4c-2.8-0.4-5.2-2-7.1-4.7c-8.4-11.5-6.7-18.6,0.3-21.8c7-3.1,14.1,0.7,25.8-0.8
		c0.6-0.1,1.2-0.1,1.8-0.1l5.9-0.4c23.9,55,33.2,92.5,28,112.5l-51.1,6.3c-2.2,7.4-4.3,13.7-6.5,18.9l-13.9,1.7
		C136.6,198.8,142.2,161.6,160.1,129.4z"/>
	<path class="st8" d="M171.1,189.8c3.3,13.3,7.1,22.7,11.5,28.3l-19,2.3C166.1,211.8,168.6,201.5,171.1,189.8L171.1,189.8z"/>
	<path class="st3" d="M469.3,59.8c3.4-5.2,5.4-11.3,4.2-17.6c-3.6-18.4-28.9-11.1-32.8-1.1c-3.9,10-0.3,33.7,6.4,34.5
		c2.7,0.3,8-2,13.2-6l-0.5,25.4l20.8-2.6L469.3,59.8z"/>
	<path class="st4" d="M447.6,29.8c2.7-1.2,6.8-2,8.6-2c-1.3-2.2-2-4.8-2-7.4c0-2.5,0.9-4.8,1.6-7.1c0.3-1.1,0.8-2.2,1.5-3.1
		c0.7-0.9,1.7-1.6,2.7-1.9c1.1-0.4,2.2-0.5,3.4-0.4c0.5,0,1,0.2,1.5,0.3c0.5,0.1,0.7-0.3,1-0.6c0.8-0.9,2-1.4,3.1-1.6
		c1.2-0.3,2.5-0.3,3.7,0c1.2,0.3,2.4,0.8,3.3,1.6c0.4,0.4,0.8,0.8,1.1,1.3c0.1,0.2,0.1,0.3,0.4,0.4c0.2,0,0.4,0,0.6,0.1
		c2,0.4,3.9,1.7,5.1,3.6c0.7,1.1,1.2,3,1.4,5.3c0.2,2.3-1.1,8.4-2.7,10.7c-1.5,2.1-3.8,3.7-6.1,4.5c1.8,1.6,3.2,3.8,4.2,6
		c1.2,2.4,2,5,2.5,7.6c0.5,2.5,0.8,5.2,0.6,7.7c-0.3,2.4-1.2,4.4-3.1,5.9c-0.8,0.7-1.8,1.2-2.7,1.7c-0.9,0.5-1.8,1-2.8,1.3
		c-1.9,0.6-4.1,0.8-5.7-0.5c-0.6-0.5-1.3-1.1-1.7-1.7c-0.2-0.2-0.3-0.4-0.1-0.6c0.2-0.3,0.5-0.6,0.7-0.8c1.3-1.4,2-3.2,2-5.3
		c0-2.1-0.9-4.6-3-5.3c-2.6-0.8-5.1,0.8-7.1,2.2c-1.3-3.1-3.6-5.8-6.7-7c-3.5-1.2-7.3-1-10.8-2c-0.9-0.3-1.9-0.6-2.6-1.2
		c-0.3-0.3-0.7-0.6-0.8-1.1c-0.2-0.5,0.1-1,0.3-1.5C440,36.3,444.9,31,447.6,29.8z"/>
	<path class="st3" d="M388.3,192.3c-7.2-7.2-22.1,0-21.3,6.6c2.2,17.4,29.1,98,30.6,103.1c1.5,5.1,11.1,5.7,10.8-0.9
		c-0.4-10.5-3.2-46.7-6.9-63.2c-1.1-4.8-2.2-9.5-3.2-13.9c10.7,13.9,26.7,33.5,48,58.7l9.5-5.6c-10.9-23.5-19.4-40.1-25.7-49.5
		c-10.7-16.2-20.6-30-24.6-34.8C400.1,186.4,393,188.2,388.3,192.3z"/>
	<path class="st9" d="M453.9,268.2l-44.3-76.9c-9.8-12.2-30.9,6.5-27.1,13.8c8.5,16.6,47.8,68.9,50.3,73.9L453.9,268.2z"/>
	<path class="st10" d="M367,205.9c2.8,23,19.6,75.8,20.2,80.9l24.3-3.8c-10.1-46.5-14.8-69.9-14.2-70.3c1.4-0.9,62.7,0.7,80.8-0.8
		c26.1-2.2,34.9-19.5,32.1-49.9l-50.4,6.2c-42.5,10.5-70.4,17.5-83.7,21.2C367.7,191.7,366.2,199.6,367,205.9z"/>
	<path class="st11" d="M459.4,273.6c2.1,1.8,3.5,3.2,4.2,4.4c0.8,1.4,1.7,3.5,2.7,6.4c-1.6,0.9-15.8,9-42.8,24.4
		c-3.2-3-3.7-5.4-1.5-7.1s4.1-3.1,5.5-4.2l14.8-20.2c0.3-0.4,0.8-0.5,1.2-0.2c0,0,0,0,0,0l3,2.4c2.8-0.2,4.9-0.7,6.3-1.5
		c1.1-0.6,2.4-2,3.9-4l0,0C457.4,273.1,458.5,272.9,459.4,273.6C459.3,273.5,459.4,273.6,459.4,273.6z"/>
	<path class="st11" d="M409,295.1c1.3,2.5,2,4.3,2.2,5.6c0.2,1.6,0.2,3.9,0.1,6.9c-1.8,0.2-18.1,2.2-48.9,6c-1.8-4-1.3-6.4,1.4-7.1
		c2.7-0.7,4.9-1.3,6.7-1.7l21.5-12.9c0.4-0.2,1-0.1,1.2,0.3c0,0,0,0,0,0l1.9,3.4c2.7,0.9,4.8,1.2,6.4,1c1.3-0.2,3-0.9,5.1-2.2l0,0
		c0.8-0.5,1.9-0.3,2.4,0.6C409,295,409,295.1,409,295.1z"/>
	<path class="st3" d="M411.3,83.6l-34.1-5.8c-6.7-4-12.9-6.8-18.6-8.3c-1.6-0.1-4.2,0.4-0.5,3.7c3.7,3.3,7.5,7,6.8,8.6
		c-0.7,1.7-4.3,0.9-5,3.5c-0.5,1.7,5.3,2.2,17.3,1.4l27.4,11.9L411.3,83.6z M421.4,141.1l-25.1,23.7c-7.2,2.9-13.2,6.2-17.9,9.9
		c-1.1,1.2-2.2,3.6,2.7,2.6c4.9-1,10.1-1.8,10.9-0.2c0.9,1.6-1.8,4-0.2,6.1c1.1,1.4,5-2.9,11.6-13l26-14.7L421.4,141.1z"/>
	<path class="st12" d="M457.6,81.2c-11.6,29.9-30.7,54.1-59.5,80.4l13.6,12c33.6-17.4,51.3-27.6,57.1-55.3
		c1.5-6.9,0.5-28.4,0.5-39.7L457.6,81.2z"/>
	<path class="st13" d="M511.2,169.5l-66.7,8.2c9.4-48,13.3-80.6,11.5-97.8c-0.1-0.9,1.3-2.6,2.1-2.5c5.4,0.8,11-0.4,16.6-3.7
		C493.6,97.2,502.9,127.9,511.2,169.5z"/>
	<path class="st14" d="M468.9,74.4c-19.1,2.5-49.7,9.8-86.9,2.8l-1.4,18.1c29.2,14.1,58.3,24.2,82,19.3c-4.9,46,0.1,82.5,23.1,79.7
		c11-1.4,22.9-2.8,35.6-4.4c1-38.7-20.4-89.5-37.4-114.4c-0.7-0.9-2-2.7-4.6-2.4C477,73.4,473.5,73.8,468.9,74.4
		C468.9,74.4,468.9,74.4,468.9,74.4z"/>
</g>
</svg>
