<?xml version="1.0" encoding="utf-8"?>
<!-- Generator: Adobe Illustrator 24.0.0, SVG Export Plug-In . SVG Version: 6.00 Build 0)  -->
<svg version="1.1" id="Layer_1" xmlns="http://www.w3.org/2000/svg" xmlns:xlink="http://www.w3.org/1999/xlink" x="0px" y="0px"
	 viewBox="0 0 41 85" style="enable-background:new 0 0 41 85;" xml:space="preserve">
<path d="M39.8,18.7c-0.3,0.2-0.5,0.3-0.8,0.5c-0.2,0.1-0.3,0.2-0.5,0.3c-4-4.5-8.9-7.9-14.7-9.5C18.1,8.2,12.1,8.1,6.3,9.6L6,8.2
	c6.1-1.6,12.1-1.8,18.2,0C30.3,10,35.8,13.6,39.8,18.7z"/>
<path d="M6.7,13.9c12.1-3.4,23.8,1.3,29.7,9.4c-0.9,0.7-0.9,0.7-1.6,0c-4.3-4.3-9.3-7.2-15.3-8.3c-3.8-0.7-7.7-0.6-11.5,0.2
	c-1.1,0.2-1.1,0.2-1.3-0.9C6.7,14.1,6.7,14,6.7,13.9z"/>
<path d="M32.1,27.1l-1.2,0.7c-6.2-6.7-13.8-8.5-22.5-6.8L8,19.7C15,16.6,28.3,20.6,32.1,27.1z"/>
<path d="M15.4,35c0.8,0.5,1.5,0.8,2,1.2c1.1,0.8,2,1.8,2.7,3c0.6,1.2,0.9,2.5,0.9,3.8c0,1.3-0.4,2.6-1,3.8c-0.7,1.2-1.6,2.2-2.7,2.9
	c-0.2,0.1-0.4,0.3-0.5,0.5c-0.1,0.2-0.2,0.4-0.2,0.7c0,9.9,0,19.8,0,29.7c0,0.6-0.1,1.1-0.3,1.7c-0.2,0.5-0.6,1-1,1.4
	c-0.5,0.5-1.2,0.9-1.9,1.1c-0.7,0.2-1.5,0.3-2.2,0.2s-1.4-0.4-2-0.8c-0.6-0.4-1.1-1-1.4-1.6c-0.3-0.6-0.4-1.2-0.4-1.8
	c-0.1-10-0.1-19.9-0.1-29.8c0-0.2,0-0.5-0.2-0.7s-0.3-0.4-0.5-0.5c-1.2-0.9-2.2-2-2.8-3.3C3.2,45,2.9,43.6,3,42.2
	c0.1-1.4,0.6-2.8,1.4-3.9c0.8-1.2,2-2.1,3.3-2.8c0.2-0.1,0.4-0.2,0.8-0.3v8.4c0.3,0,0.5,0.1,0.8,0.1c1.8,0,3.5,0,5.3,0
	c0.6,0,0.8-0.2,0.8-0.7c0-2.3,0-4.6,0-7L15.4,35z M14.4,79.9c0-0.6-0.2-1.2-0.7-1.6c-0.5-0.4-1.1-0.7-1.7-0.7
	c-0.3,0-0.6,0.1-0.9,0.2c-0.3,0.1-0.6,0.3-0.8,0.5c-0.5,0.4-0.7,1-0.7,1.6c0,0.6,0.2,1.2,0.7,1.6c0.5,0.4,1.1,0.7,1.7,0.7
	c0.6,0,1.3-0.2,1.7-0.6C14.1,81.1,14.4,80.5,14.4,79.9z"/>
</svg>
