<svg width="47" height="50" viewBox="0 0 47 50" fill="none" xmlns="http://www.w3.org/2000/svg">
<path d="M46.4382 46.9287L35.2833 35.6265C38.9208 31.8182 41.2245 26.6585 41.2245 20.8845C41.2245 9.33661 32.0096 0 20.6123 0C9.21489 0 0 9.33661 0 20.8845C0 32.4324 9.21489 41.769 20.6123 41.769C24.9772 41.769 29.0996 40.2948 32.4946 37.9607L43.892 49.5086C44.2557 49.8771 44.7407 50 45.2257 50C45.7107 50 46.1957 49.8771 46.5594 49.5086C47.1657 48.7715 47.1657 47.6658 46.4382 46.9287ZM3.63746 20.8845C3.63746 11.4251 11.2761 3.6855 20.6123 3.6855C29.9484 3.6855 37.587 11.4251 37.587 20.8845C37.587 30.344 29.9484 38.0835 20.6123 38.0835C11.2761 38.0835 3.63746 30.344 3.63746 20.8845Z" fill="white"/>
</svg>
