<svg id="a1aadf16-b239-4d96-865d-4c00b993e95a" data-name="Layer 1" xmlns="http://www.w3.org/2000/svg" viewBox="0 0 192.14 132.05"><defs><style>.f1e224cc-06a4-470b-b2e5-3a60d2a2ebd9{fill:#915b3c;}.a5cab7d1-f071-4bd7-a7ea-70abc925ab22,.a7bf7e0d-922f-497b-867f-39697879bbb3,.a99c72df-98e6-45b8-bb9f-ccdec2629dc1,.ada830dd-5bc1-4acb-bd3f-1532df89ffa9,.af8c12e9-4813-4c39-9b21-42da1c890c9e,.b2c238c0-3cc2-44cc-babe-f06629df1c93,.b5d86e23-7d1f-4c38-93dc-52b6178f89b7,.b783617d-07e3-4300-99a5-2a316f87362c,.b8327bfa-cc7e-4739-9370-c629d0001860,.bcb99182-bd07-4d88-89d3-4fa0be911106,.eeb9eeef-d61d-4dfd-b423-0ebe8bfc51ea,.f1e224cc-06a4-470b-b2e5-3a60d2a2ebd9,.f8d18c6a-c402-43e0-aaa5-de44c0b43943{fill-rule:evenodd;}.b783617d-07e3-4300-99a5-2a316f87362c{fill:#191847;}.b8327bfa-cc7e-4739-9370-c629d0001860{fill:#2f3676;}.eeb9eeef-d61d-4dfd-b423-0ebe8bfc51ea{fill:#e4e4e4;}.af8c12e9-4813-4c39-9b21-42da1c890c9e{fill:#5c63ab;}.ada830dd-5bc1-4acb-bd3f-1532df89ffa9{fill:#2026a2;}.a7bf7e0d-922f-497b-867f-39697879bbb3{fill:#1f28cf;}.f8d18c6a-c402-43e0-aaa5-de44c0b43943{fill:#2b44ff;}.a5cab7d1-f071-4bd7-a7ea-70abc925ab22{fill:#b28b67;}.a99c72df-98e6-45b8-bb9f-ccdec2629dc1{fill:#e87613;}.b2c238c0-3cc2-44cc-babe-f06629df1c93{fill:#dde3e9;}.bcb99182-bd07-4d88-89d3-4fa0be911106{fill:#ff9b21;}.b5d86e23-7d1f-4c38-93dc-52b6178f89b7{fill-opacity:0.1;}</style></defs><title>footer-people</title><path class="f1e224cc-06a4-470b-b2e5-3a60d2a2ebd9" d="M178.49,19.36a11.93,11.93,0,0,0,3.17-8.54c-.66-9.4-13.74-7.33-16.28-2.59s-2.25,16.77,1,17.62c1.31.34,4.11-.49,7-2.2l-1.79,12.62h10.54Z"/><path class="b783617d-07e3-4300-99a5-2a316f87362c" d="M174.92,14.26a2.09,2.09,0,0,1,1.2-.38,2.26,2.26,0,0,1,2.19,2.2A2.59,2.59,0,0,1,177,18.51c.42.82.84,1.41,1.33,1.52,1.9-.2,4.39-4.91,4.39-8.78,0-4.24-3.37-7.9-9.66-7.9-5.64,0-7.79,2.32-7.9,4.38,2.42.67,6.65.93,12.73.88v.44l-5.26.44-.88,2.63C173.12,12,174.12,13,174.92,14.26Z"/><path class="f1e224cc-06a4-470b-b2e5-3a60d2a2ebd9" d="M127.88,73c-3.13-2.33-8.95-.32-9.22,2.53-.84,8.53,3,49.48,3.13,52.06s4.44,3.68,5,.5c.9-5.05,3.4-22.62,3.46-30.86,0-3.4,0-6.64,0-9.54q5,11.67,15.81,33.54l4.85-1.66q-3.69-18.54-6.45-26.3c-3.15-8.86-6.18-16.48-7.5-19.19C134.85,69.8,130.39,70.78,127.88,73Z"/><path class="b8327bfa-cc7e-4739-9370-c629d0001860" d="M151.21,112.86,139,73.57c-3.2-6.51-14.63-.19-13.68,3.5,2.15,8.37,14.59,36,15.23,38.51Z"/><path class="eeb9eeef-d61d-4dfd-b423-0ebe8bfc51ea" d="M151.67,117.24a8.34,8.34,0,0,1,1.73,2.19,21.25,21.25,0,0,1,1,3.06l-20.8,9.42c-1.35-1.55-1.47-2.65-.37-3.32s2-1.24,2.72-1.7l7.72-8.69a.41.41,0,0,1,.57,0h0l1.3,1.22a7.27,7.27,0,0,0,3-.43,6.47,6.47,0,0,0,2-1.69h0a.81.81,0,0,1,1.14-.08Z"/><path class="eeb9eeef-d61d-4dfd-b423-0ebe8bfc51ea" d="M128,126.14a8.74,8.74,0,0,1,.41,2.77,21.55,21.55,0,0,1-.68,3.14L105,129.81c-.4-2,0-3,1.33-3.06s2.36-.07,3.22-.11l11-3.67a.41.41,0,0,1,.51.26h0l.51,1.72a7.37,7.37,0,0,0,2.79,1.1,6.49,6.49,0,0,0,2.55-.48h0a.81.81,0,0,1,1,.51S128,126.12,128,126.14Z"/><path class="af8c12e9-4813-4c39-9b21-42da1c890c9e" d="M117.25,78.31c-1.06,10.7,1.56,36.17,1.33,38.53l10.93,1.09q.9-33.66,1.64-33.94c.73-.29,28.35,5.61,36.72,6.44,12.08,1.2,17.82-5.92,19.63-20l-23.93-2.37c-4.92,0-30.83,2.65-40.44,3.48C119,71.91,117.54,75.36,117.25,78.31Z"/><path class="f1e224cc-06a4-470b-b2e5-3a60d2a2ebd9" d="M162.33,42.61l-13.23-9a35.18,35.18,0,0,0-6.23-7.12c-.66-.35-1.85-.64-.92,1.47s1.81,4.38,1.17,4.94-2-.45-2.77.51q-.78,1,7,4l9.24,10.31ZM139.79,46.9l-5.81-4q-.79-5-2.6-5.25c-.88-.52.32,3.78-1.39,3.25s-5.66-4.12-6.46-3.55c-1.18.84-.5,3.86.5,5.43,1.86,2.92,3.54,4,7.78,5.68a24.1,24.1,0,0,1,7,4.55Z"/><path class="ada830dd-5bc1-4acb-bd3f-1532df89ffa9" d="M169.31,41.58a34.61,34.61,0,0,1-17.86-7.33l-3.34,5.83c4.34,5.24,10.71,9.83,16.64,10.25A5.36,5.36,0,0,0,169.31,41.58Z"/><path class="a7bf7e0d-922f-497b-867f-39697879bbb3" d="M161.74,50.71q-8,1.17-25.7-7.17-5.49,9-5.54,13c10,6.52,18.72,9.86,26.11,10.75a25.66,25.66,0,0,0,.87,12.62c2.92,8.23,25.3,3.09,32.43,5.24,6-14.35-2.19-21.24-1.26-30.72,1-10.37-5.73-27.16-7-27.29l-11.18-1.1C169.11,33.91,165.14,42.34,161.74,50.71Z"/><path class="a7bf7e0d-922f-497b-867f-39697879bbb3" d="M59.27,110.93,69.81,73.82c2.86-6.18,13.72-.5,12.91,3-1.83,7.9-12.86,34.1-13.41,36.45Z"/><path class="f8d18c6a-c402-43e0-aaa5-de44c0b43943" d="M90.32,77.77c1.23,10-.64,34-.37,36.15l-10.23,1.27q-1.6-31.53-2.3-31.78c-.7-.26-26.45,5.9-34.28,6.87C31.84,91.67,26.29,85.13,24.29,72l22.37-2.76c4.62-.07,29,1.79,38,2.35C88.52,71.81,90,75,90.32,77.77Z"/><path class="a5cab7d1-f071-4bd7-a7ea-70abc925ab22" d="M25.26,21.26A10.75,10.75,0,0,1,21.48,14C21,5.48,33,5.88,35.77,9.85s3.86,14.76,1,15.88c-1.14.45-3.73,0-6.47-1.21l3,11.11-9.43,1.16Z"/><path class="b783617d-07e3-4300-99a5-2a316f87362c" d="M39.22,3.45a2,2,0,0,0-1.61-1.27,1.58,1.58,0,0,0-.53,0c-.06,0-.08,0-.11,0a.38.38,0,0,1,0-.15,2.07,2.07,0,0,0-.15-.34,2.91,2.91,0,0,0-.83-.95A3.52,3.52,0,0,0,33.71,0a3.18,3.18,0,0,0-1.24.33,5.51,5.51,0,0,0-.58.34c-.06,0-.24.21-.3.21s-.22-.15-.28-.19A3.74,3.74,0,0,0,28.9.27a4.31,4.31,0,0,0-2.56,1,4.47,4.47,0,0,0-.42.45c-.07.09-.14.17-.2.26l-.11.16c-.06.1-.05.12-.15.08A1.92,1.92,0,0,0,24.17,2a2.37,2.37,0,0,0-.73.31c-.08,0-.26.21-.34.22a2.16,2.16,0,0,1-.39-.12,3,3,0,0,0-1.53,0,4,4,0,0,0-1.41.76,2.21,2.21,0,0,0-.49.57,2.69,2.69,0,0,1-.16.29c0,.06-.12.12-.13.18a3.34,3.34,0,0,0-.67-.2,1.58,1.58,0,0,0-.88.14,3.56,3.56,0,0,0-1.27,1.17,3.73,3.73,0,0,0-.43.75,2.74,2.74,0,0,0-.15.4,1.52,1.52,0,0,1-.06.2c0,.07-.07.08-.16.12a2.69,2.69,0,0,0-1.06.92,2.61,2.61,0,0,0-.44,1.35s0,.14,0,.16-.11,0-.14,0l-.34.1a3,3,0,0,0-.59.3,3.24,3.24,0,0,0-1.34,2.07,3.88,3.88,0,0,0,.38,2.59,2.25,2.25,0,0,0,.24.36c.06.07.07.07,0,.15s-.07.18-.1.27a3.49,3.49,0,0,0-.17.91A4.07,4.07,0,0,0,12,17.6a2.17,2.17,0,0,0,.31.63,2.91,2.91,0,0,0,.24.27l.14.12.09.06c.06.06.07,0,.05.11s-.09.29-.12.43-.07.3-.1.45-.09.6-.11.9a2.82,2.82,0,0,0,.41,1.7,1.82,1.82,0,0,0,.56.51,1.5,1.5,0,0,0,.34.16c.06,0,.14,0,.17.07s0,.19,0,.25A4.24,4.24,0,0,0,14.24,25a2.49,2.49,0,0,0,1.13,1.18,3,3,0,0,0,3-.28,3.26,3.26,0,0,0,.62-.55,2.24,2.24,0,0,0,2.39.19,3.41,3.41,0,0,0,1.92-2A1.43,1.43,0,0,0,25.55,23a2,2,0,0,0,.11-.64c0-.12,0-.23,0-.34a1.36,1.36,0,0,1,.11-.44,2.27,2.27,0,0,0,.07-.86,2.15,2.15,0,0,0-.09-.44,2.67,2.67,0,0,1,0-.4,1.82,1.82,0,0,1-.77,0,1.54,1.54,0,0,1-.64-.35,3.4,3.4,0,0,1-.92-1.29,2.48,2.48,0,0,1,.54-3.13,5.57,5.57,0,0,1,2.65-.47c.66.06,1.57,1.4,1.62,1.53s0,.18.12.23.43-.15.54-.27a2.14,2.14,0,0,0,.41-.72,7.57,7.57,0,0,0,.48-1.75c.07-.46.09-.93.2-1.38a2,2,0,0,1,.7-1.16A7.31,7.31,0,0,1,32,10.34a3.53,3.53,0,0,0,1.22-.88,1.65,1.65,0,0,0,.19-.27c0-.08.08-.23.15-.28S33.87,9,34,9a4.7,4.7,0,0,1,1.46,1.13,8.62,8.62,0,0,1,1,1.43,4.28,4.28,0,0,0,.74,1.21,2.43,2.43,0,0,0,1.47-.07,1.9,1.9,0,0,0,.72-.79,1.08,1.08,0,0,0,0-.71c0-.14-.12-.26-.17-.4a1.33,1.33,0,0,0-.15-.32.84.84,0,0,0-.56-.35A2.55,2.55,0,0,0,39,9.35a3.52,3.52,0,0,0,.17-1,1.19,1.19,0,0,0-.26-.74,1.93,1.93,0,0,0-.72-.46A4,4,0,0,0,39,6,3.12,3.12,0,0,0,39.22,3.45Z"/><path class="b783617d-07e3-4300-99a5-2a316f87362c" d="M56.37,118.15l2.77-7.85,8,2.39A49.25,49.25,0,0,0,80,123.57l-.46,1.51-14.41-4.32-4.7-2.23-.23.75Z"/><path class="b783617d-07e3-4300-99a5-2a316f87362c" d="M80.74,123.5l-.62-8.3,8.25-1a49.05,49.05,0,0,0,16.15,4.8l.19,1.57-14.93,1.84-5.2-.16.09.79Z"/><path class="a5cab7d1-f071-4bd7-a7ea-70abc925ab22" d="M57.46,60.61l13.67,7.66a34.25,34.25,0,0,1,8.94,2.37c.6.43,1.37,1.34-.88,1.45s-4.63.31-4.84,1.11,1.25,1.54.75,2.65q-.5,1.11-6.52-4.43l-13-3.62ZM9.38,66.86l8.21-1q-4.58,25.49-5,27.06c-.63,2.37,1.72,5.56,2.77,7.31-2.54,1.53-2.8-3-6-1-2.91,1.81-4.94,4.7-8.77,2.94-.48-.21-1.08-1.17,0-2.11C3.24,97.78,7,93.8,7.4,92.59Q8.25,90.12,9.38,66.86Z"/><path class="a99c72df-98e6-45b8-bb9f-ccdec2629dc1" d="M28.46,29.53l3.33-1c14,9.33,21.7,29.62,38.52,38.8l-3.15,5.06C40,72.38,30.16,47.68,28.46,29.53Z"/><path class="b2c238c0-3cc2-44cc-babe-f06629df1c93" d="M18.92,74.05,49,70.35c1.37-.17.87-2.12.55-3.1C45.81,56,35.33,44.63,33.3,28.19l-8.84-.29C18.71,40.32,18,54.82,18.92,74.05Z"/><path class="bcb99182-bd07-4d88-89d3-4fa0be911106" d="M15,40.57a5,5,0,0,1-3.3-2.17c-3.87-5.32-3.12-8.61.14-10.07s6.54.31,11.94-.35a6,6,0,0,1,.81-.05l2.74-.18q16.56,38.16,13,52L16.65,82.71a80.85,80.85,0,0,1-3,8.75l-6.44.79Q2.66,62.94,15,40.57Z"/><path class="b5d86e23-7d1f-4c38-93dc-52b6178f89b7" d="M20.13,68.52q2.28,9.2,5.3,13.11l-8.78,1.08q1.76-6,3.48-14.19Z"/></svg>