<?xml version="1.0" encoding="utf-8"?>
<!-- Generator: Adobe Illustrator 24.0.0, SVG Export Plug-In . SVG Version: 6.00 Build 0)  -->
<svg version="1.1" id="Layer_1" xmlns="http://www.w3.org/2000/svg" xmlns:xlink="http://www.w3.org/1999/xlink" x="0px" y="0px"
	 viewBox="0 0 396.1 262.2" style="enable-background:new 0 0 396.1 262.2;" xml:space="preserve">
<style type="text/css">
	.st0{fill-rule:evenodd;clip-rule:evenodd;fill:#B28B67;}
	.st1{fill-rule:evenodd;clip-rule:evenodd;fill:#191847;}
	.st2{fill-rule:evenodd;clip-rule:evenodd;fill:#1F28CF;}
	.st3{fill-rule:evenodd;clip-rule:evenodd;fill:#2B44FF;}
	.st4{fill-rule:evenodd;clip-rule:evenodd;fill:#DB2721;}
	.st5{fill-rule:evenodd;clip-rule:evenodd;fill:#DDE3E9;}
	.st6{fill-rule:evenodd;clip-rule:evenodd;fill:#FF4133;}
	.st7{fill-rule:evenodd;clip-rule:evenodd;fill:#57331F;}
	.st8{fill-rule:evenodd;clip-rule:evenodd;fill:#9FA7AC;}
	.st9{fill-rule:evenodd;clip-rule:evenodd;fill:#C5CFD6;}
	.st10{fill-rule:evenodd;clip-rule:evenodd;fill:#E4E4E4;}
	.st11{fill-rule:evenodd;clip-rule:evenodd;fill:#2026A2;}
	.st12{fill-rule:evenodd;clip-rule:evenodd;fill-opacity:0.1;}
</style>
<g>
	<g>
		<path class="st0" d="M303.4,67c3.6-3.4,6.2-7.8,6.5-13c0.8-14.9-19.7-13.7-24.5-6.6s-6.7,26.1-1.8,28c1.9,0.7,6.4-0.1,11.1-2.4
			l-5.3,19.6l16.2,1.6L303.4,67z"/>
		<path class="st1" d="M295.7,39.7c2.2-0.1,8,0.2,9,0.3c0.7,0.1,1.4,0.3,1.9-0.3c0.4-0.5,0.4-1.4,0.6-2c0.2-0.7,0.4-1.4,0.7-2.1
			c0.7-1.9,1.6-3.7,2.9-5.4c2.3-3.1,5.3-5.4,8.9-6.6c4-1.3,8.3-1.2,12.3-0.5c4.3,0.8,8,2.7,12,4.5c3.7,1.7,7.8,2.6,11.9,2.4
			c4.2-0.2,7.6-2.2,11.3-4c3.8-1.9,8.1-2.9,12.2-2.2c3.9,0.7,7.3,2.7,10.3,5.3c2.8,2.4,5,5.1,6,8.8c1.1,3.9,0.5,8.1-2.4,11.2
			c-4.2,4.5-11.1,5.1-16.7,4.4c-3.2-0.4-6.3-1.3-9.3-2.7c-3.9-1.9-7.1-4.7-10.7-7.1c-1.7-1.1-3.4-2.1-5.3-2.9
			c-1.8-0.7-3.6-1.2-5.5-0.2c-2,1.1-3.7,2.1-5.9,2.7c-2.1,0.5-4.2,0.7-6.3,0.5c-4.1-0.4-8-2.2-11.9-3.4c-3.2-1-6.5-2.1-9.9-1.8
			c-1.4,0.1-3.5,0.5-4.2,2c8.2,2.4,10.2,13.4,6.8,21c-1.8,4.1-10.1,8.3-12.8,5.7c-1.7-1.6-0.3-3.3,0.6-4.5c1.7-2.2,2.6-5.1,0.1-7
			c-2.1-1.6-4.9,1.5-4.9,1.5c-0.6-0.1-5.6-3.8-8.8-8.7c-3.7-0.1-3.9-2.7-2.8-4.6C286.9,41.9,292.7,39.9,295.7,39.7z"/>
		<path class="st0" d="M193.1,255.3c11.1-18.8,19.5-35.3,23.1-44c6.2-15,11.2-28.3,12.6-33.3c3.5-11.9-13.6-14.3-16.6-8.6
			c-4.6,8.8-14.3,38.1-27,82.6L193.1,255.3z M301,203.7c-7.5-4-34.1-16.9-47.1-21.1c-3.7-1.2-7.4-2.3-10.8-3.4
			c-10.2-3.1-18,15.7-8.1,18.2c24.6,6.2,59.5,13.6,62.5,14.3C301.7,212.8,305.8,206.2,301,203.7z"/>
		<path class="st2" d="M237.4,173.2l45.7-18.1l0.6-4.9l-5.1-0.5c-42.9,6.7-64.9,11.5-66.2,14.5v0.1c0,0,0,0.1-0.1,0.1
			c-9.7,10.8-21.6,67-23.8,71.1l15.5,4c8.9-22.4,30.2-36.4,33.1-64C237.2,174.7,237.3,174,237.4,173.2z"/>
		<path class="st3" d="M275,190.5c4-0.4,7.7-0.8,10.9-1c20.4-1.6,27.6-12,27.1-36.3l-36.8-3.7c-6.2,1.2-39.2,11.5-56.3,17
			c-11.3,3.7-10.1,21.1-4.5,26.1c0,0.3,0.1,0.5,0.3,0.6c31,17.2,57.7,12.5,66.1,15.7l5.6-12.5L275,190.5z"/>
		<g>
			<path class="st1" d="M298.6,201.4c2.1,0.4,3.6,0.9,4.4,1.5c1,0.7,2.4,1.8,4.2,3.4c-0.8,1.2-7.8,12.4-21,33.5
				c-3.3-0.9-4.5-2.4-3.5-4.4s1.7-3.7,2.3-5.1l3.1-19.8c0.1-0.4,0.4-0.6,0.8-0.6l0,0l3,0.5c1.9-1.2,3.1-2.4,3.8-3.5
				c0.6-0.9,1-2.3,1.3-4.3l0,0C297,201.8,297.7,201.3,298.6,201.4C298.5,201.3,298.5,201.4,298.6,201.4z"/>
		</g>
		<path class="st1" d="M197.5,252c0.5,2.1,0.7,3.7,0.6,4.8c-0.2,1.2-0.6,3.1-1.3,5.4c-1.4-0.1-14.1-1.4-38.1-3.8
			c-0.6-3.5,0.2-5.2,2.4-5.3s4-0.1,5.4-0.2l18.7-6.3c0.4-0.1,0.7,0.1,0.8,0.4l0,0l0.8,2.9c1.9,1.1,3.4,1.8,4.6,1.9
			c1,0.1,2.4-0.2,4.3-0.8l0,0C196.5,250.8,197.2,251.2,197.5,252C197.4,252,197.5,252,197.5,252z"/>
		<path class="st0" d="M244.2,127.1l-23.1-13.5c-3.7-4.8-7.5-8.6-11.2-11.2c-1.1-0.5-3.2-0.8-1.4,2.6c1.8,3.5,3.5,7.2,2.5,8.3
			c-1,1.1-3.4-0.5-4.6,1.3c-0.8,1.2,3.2,3.1,12.2,5.7l16.5,16.3L244.2,127.1z M342.6,140.1l-14.2,1.4c10.6,28,16.3,42.9,17.1,44.6
			c1.8,3.8-1.1,10.2-2.3,13.6c4.8,1.7,3.8-6.1,9.8-3.9c5.5,2,9.8,6.2,15.7,1.7c0.7-0.5,1.4-2.4-0.7-3.6c-5.2-3-12.8-8.4-13.9-10.4
			C352.7,180.9,348.9,166.4,342.6,140.1z"/>
		<path class="st4" d="M297.8,81.7l-5.7-1.6c-14.3,11.4-23.2,41.3-32.2,44.5c-8.5,3-19.4-1.8-32.3-8.2l-5.3,9.1
			c10.6,14.9,35.3,29,46.7,23.5C287.2,140.2,295.8,103.1,297.8,81.7z"/>
		<path class="st5" d="M313.9,159.6c-23.4-2.4-40.6-4.1-51.6-5.2c-2.4-0.2-1.5-3.7-0.9-5.4c6.5-20,24.6-40.4,28.1-69.4l15.2-0.9
			C314.5,100.3,315.7,125.8,313.9,159.6z"/>
		<path class="st6" d="M321.6,139.5c8.1,20.6,15.2,35.5,21.3,44.8l11.1-1.1c-1.5-45.1-17.6-79.9-48.4-104.4l-2.7-0.3l-3.2-0.3
			c-19.2,45.5-26.7,76.3-22.7,92.5l46.5,4.7C324.3,163.9,323.4,151.6,321.6,139.5L321.6,139.5z"/>
	</g>
	<g>
		<path class="st7" d="M67.4,44.6c-2.3-4.2-3.4-9.1-2-13.9c4-13.9,23.1-6.6,25.4,1.4s-2.1,26-7.3,26.2c-2.1,0.1-6-2.1-9.7-5.6
			l-1.4,19.6l-15.9-3.4L67.4,44.6z"/>
		<path class="st7" d="M120.7,152.3c6.1-5.1,16.5,1.9,15.4,7c-2.9,13.3-28.7,73.1-30.2,77c-1.5,3.8-9,3.6-8.3-1.5
			c1-8.1,5.7-35.7,9.7-48.2c1.2-3.7,2.3-7.2,3.4-10.5c-9.2,10-22.9,24-41.1,41.9l-6.9-4.9c10-17.4,17.8-29.5,23.3-36.4
			c9.4-11.8,18-21.7,21.4-25.2C112,147,117.4,148.9,120.7,152.3z"/>
		<path class="st8" d="M64.8,206.3l39.5-56.3c8.4-8.7,23.4,7.2,20,12.6c-7.7,12.2-41.6,49.8-43.9,53.5L64.8,206.3z"/>
		<path class="st9" d="M136.2,164.3c-3.8,17.5-20.4,57.1-21.2,61l-18.5-4.7c11-35.2,16.2-52.9,15.8-53.3c-1-0.8-48.4-3.8-62.3-6.2
			c-20-3.5-25.6-17.5-21.3-40.7l38.4,8.3c32,11,53,18.4,63,22.2C136.7,153.3,137.2,159.5,136.2,164.3z"/>
		<path class="st10" d="M60.2,210.1c-1.8,1.2-2.9,2.2-3.5,3.1c-0.7,1-1.5,2.6-2.6,4.7c1.2,0.8,11.6,8.1,31.3,21.8
			c2.7-2.1,3.2-3.9,1.6-5.3c-1.6-1.4-2.9-2.6-4-3.6l-10-16.6c-0.2-0.3-0.6-0.4-0.9-0.2l0,0l-2.5,1.6c-2.1-0.4-3.7-0.9-4.7-1.6
			c-0.8-0.6-1.7-1.7-2.7-3.4l0,0C61.8,209.9,61,209.6,60.2,210.1C60.3,210,60.3,210.1,60.2,210.1z"/>
		<path class="st10" d="M97.6,230.1c-1.2,1.8-1.9,3.2-2.1,4.2c-0.3,1.2-0.4,3-0.5,5.3c1.4,0.3,13.8,3,37.3,8c1.7-3,1.5-4.8-0.6-5.5
			c-2-0.7-3.7-1.3-5.1-1.8L111,228.9c-0.3-0.2-0.7-0.2-0.9,0.1l0,0l-1.7,2.5c-2.1,0.5-3.8,0.6-5,0.3c-1-0.2-2.3-0.9-3.8-2.1l0,0
			C98.9,229.3,98.1,229.5,97.6,230.1L97.6,230.1z"/>
		<path class="st7" d="M108.5,121.5l21,16.8c5.8,1.8,10.6,4,14.4,6.5c0.9,0.9,1.9,2.6-1.9,2.2c-3.8-0.5-7.9-0.8-8.5,0.5
			s1.7,3,0.5,4.7c-0.8,1.2-4-2-9.8-9.3l-21-9.8L108.5,121.5z M25.5,118.6l14.2,0.6c-9.9,27.9-15.3,42.6-16,44.3
			c-1.7,3.8,1.3,9.9,2.6,13.1c-4.7,1.9-3.9-5.8-9.8-3.3c-5.4,2.3-9.7,6.6-15.6,2.5c-0.7-0.5-1.5-2.3,0.6-3.6
			c5.1-3.2,12.6-8.9,13.6-10.8C16.4,158.9,19.9,144.6,25.5,118.6z"/>
		<path class="st11" d="M68.2,60.9l5.9-0.8c21,19.7,28.4,56.1,54.2,76.3l-6.7,7.7C75.6,136.5,66,92,68.2,60.9z"/>
		<path class="st5" d="M39.6,133.4c23.5,1,40.8,1.7,51.8,2.2c2.4,0.1,2.1-3.3,1.8-5.1C90.1,110.4,75.5,88.3,76.7,60l-14.9-3
			C48.7,76.4,43.4,100.7,39.6,133.4z"/>
		<path class="st3" d="M42.4,75.8c-2.1-0.7-3.8-2.2-5-4.6c-5.1-10.1-2.9-15.4,3.1-17c5.9-1.5,11,2.3,20.3,2.7c0.5,0,1,0.1,1.4,0.2
			l4.7,0.5c11.5,46.1,14,76.6,7.3,91.6l-40.8-1.7c-2.7,5.5-5.2,10.2-7.5,13.9l-11.1-0.5C15.1,127,24.3,98.6,42.4,75.8z"/>
		<path class="st12" d="M43.2,124.4c0.8,10.8,2.6,18.7,5.3,23.6l-15.1-0.6C36.4,141,39.7,133.3,43.2,124.4L43.2,124.4z"/>
	</g>
</g>
<path class="st1" d="M84.7,19.1c-2.1-0.9-5.3-1.6-6.6-1.6c1-1.7,1.5-3.7,1.5-5.8c0-2-0.7-3.7-1.2-5.5c-0.3-0.8-0.6-1.7-1.1-2.4
	c-0.6-0.7-1.3-1.2-2.1-1.5C74.3,2,73.4,1.9,72.5,2c-0.4,0-0.8,0.2-1.1,0.2C71,2.3,70.8,2,70.6,1.7C70,1.1,69,0.7,68.2,0.4
	c-0.9-0.2-1.9-0.2-2.9,0c-0.9,0.2-1.8,0.6-2.6,1.2c-0.3,0.3-0.6,0.6-0.8,1c-0.1,0.2-0.1,0.3-0.3,0.3c-0.2,0-0.3,0-0.5,0.1
	c-1.6,0.3-3,1.3-3.9,2.8c-0.5,0.8-0.9,2.4-1.1,4.1c-0.2,1.7,0.8,6.5,2.1,8.3c1.1,1.6,2.9,2.8,4.7,3.5c-1.4,1.3-2.4,2.9-3.3,4.6
	c-0.9,1.9-1.6,3.8-2,5.9c-0.4,1.9-0.7,4-0.4,6c0.2,1.8,0.9,3.4,2.4,4.5c0.6,0.5,1.4,0.9,2.1,1.3c0.7,0.4,1.4,0.8,2.2,1
	c1.4,0.5,3.2,0.6,4.5-0.4c0.5-0.4,1-0.9,1.3-1.3c0.1-0.2,0.2-0.3,0.1-0.5c-0.1-0.2-0.4-0.4-0.5-0.6c-1-1.1-1.6-2.5-1.6-4.1
	c0-1.6,0.7-3.6,2.3-4.1c2-0.6,3.9,0.6,5.5,1.7c1-2.4,2.8-4.5,5.2-5.4c2.7-1,5.6-0.8,8.4-1.5c0.7-0.2,1.4-0.4,2-1
	c0.2-0.2,0.5-0.5,0.6-0.8c0.2-0.4-0.1-0.8-0.2-1.2C90.6,24,86.8,20,84.7,19.1z"/>
</svg>
