<svg width="247" height="253" viewBox="0 0 247 253" fill="none" xmlns="http://www.w3.org/2000/svg">
<path d="M235.206 93.6946C279.233 125.112 182.54 245.254 127.367 252.236C72.9011 259.128 12.4614 218.395 1.80528 170.334C-2.82037 143.412 1.41515 46.8595 49.6222 9.04226C97.8293 -28.7749 191.178 62.2773 235.206 93.6946Z" fill="white"/>
<path fill-rule="evenodd" clip-rule="evenodd" d="M150.656 158.861H94.5504C90.2393 158.861 86.7444 162.509 86.7444 167.01V213.868C86.7444 218.368 90.2393 222.017 94.5504 222.017H150.656C154.968 222.017 158.462 218.368 158.462 213.868V167.01C158.462 162.509 154.968 158.861 150.656 158.861ZM142.85 173.122C143.928 173.122 144.802 174.034 144.802 175.159V205.719C144.802 206.844 143.928 207.756 142.85 207.756H102.356C101.279 207.756 100.405 206.844 100.405 205.719V175.159C100.405 174.034 101.279 173.122 102.356 173.122H142.85Z" fill="#C5CFD6"/>
<path fill-rule="evenodd" clip-rule="evenodd" d="M38.367 219.471C47.986 207.208 54.4944 198.117 57.8923 192.198C63.7102 182.063 68.472 173.045 69.9746 169.6C73.558 161.385 61.7252 157.538 59.0472 161.37C54.9939 167.17 46.3375 185.419 33.0779 216.118L38.367 219.471Z" fill="#B28B67"/>
<path fill-rule="evenodd" clip-rule="evenodd" d="M58.0775 215.905L75.9788 168.863C79.8076 160.287 61.3179 154.65 58.504 158.641C52.1157 167.702 36.9322 203.444 35.0289 206.144L58.0775 215.905Z" fill="#1F28CF"/>
<path fill-rule="evenodd" clip-rule="evenodd" d="M105.755 206.471C102.267 201.161 89.5837 183.296 82.6751 175.904C80.6898 173.78 78.7528 171.741 76.9206 169.841C71.4749 164.194 60.6305 173.686 66.0662 178.829C79.6032 191.639 99.3546 208.931 101.005 210.473C103.318 212.634 107.946 209.809 105.755 206.471Z" fill="#915B3C"/>
<path fill-rule="evenodd" clip-rule="evenodd" d="M104.941 204.072C106.142 205.105 106.923 205.948 107.285 206.602C107.725 207.397 108.24 208.634 108.83 210.313C107.946 210.846 100.002 215.634 84.9993 224.677C83.198 222.913 82.9174 221.543 84.1574 220.569C85.3974 219.594 86.4206 218.772 87.2272 218.103L95.4525 206.272C95.6108 206.045 95.9159 205.994 96.134 206.159C96.1377 206.162 96.1414 206.165 96.145 206.168L97.8541 207.542C99.422 207.399 100.592 207.095 101.364 206.629C101.992 206.251 102.712 205.464 103.525 204.269L103.525 204.269C103.837 203.81 104.446 203.702 104.885 204.028C104.904 204.042 104.923 204.057 104.941 204.072Z" fill="#E4E4E4"/>
<path fill-rule="evenodd" clip-rule="evenodd" d="M42.504 217.638C43.0498 219.159 43.3228 220.297 43.3228 221.053C43.3228 221.971 43.1762 223.311 42.8831 225.073C41.8624 225.073 32.6901 225.073 15.3659 225.073C14.6508 222.605 15.0636 221.273 16.6042 221.076C18.1449 220.879 19.4247 220.702 20.4437 220.543L33.2334 214.591C33.4795 214.476 33.768 214.592 33.8777 214.849C33.8796 214.853 33.8814 214.858 33.8832 214.862L34.7053 216.944C36.1315 217.639 37.2905 217.986 38.1821 217.986C38.9066 217.986 39.9071 217.68 41.1837 217.07L41.1837 217.07C41.6735 216.835 42.2527 217.06 42.4773 217.571C42.487 217.593 42.4959 217.615 42.504 217.638Z" fill="#E4E4E4"/>
<path fill-rule="evenodd" clip-rule="evenodd" d="M82.4205 171.212C97.2992 168.682 107.265 166.952 112.318 166.021C126.722 163.37 130.922 155.278 128.439 137.624H101.9C98.3884 138.682 83.7142 145.231 57.8776 157.268C53.2291 159.677 54.0948 166.78 54.9444 169.12C54.9791 169.215 62.8156 183.234 78.4539 211.175L100.164 196.737L82.3797 172.914C81.91 171.926 81.9236 171.359 82.4205 171.212Z" fill="#2B44FF"/>
<path fill-rule="evenodd" clip-rule="evenodd" d="M103.74 67.3856C104.84 63.2283 104.856 58.7817 102.757 54.8289C96.7095 43.4397 82.1657 53.6683 81.7646 61.0967C81.3635 68.5252 88.4556 83.4226 92.8768 82.5644C94.6399 82.2221 97.53 79.5531 99.9841 75.7453L104.905 92.6085L117.553 86.4547L103.74 67.3856Z" fill="#B28B67"/>
<path fill-rule="evenodd" clip-rule="evenodd" d="M72.0412 55.8007C71.8741 54.7121 72.2112 53.5464 73.0516 52.8404C73.2554 52.6691 73.4825 52.5295 73.7239 52.4243C73.8105 52.3864 73.8457 52.4004 73.8577 52.3191C73.8667 52.2587 73.8172 52.1461 73.8052 52.0861C73.7679 51.8997 73.7409 51.7107 73.727 51.5207C73.6795 50.8726 73.7954 50.2221 74.0143 49.6151C74.4237 48.4797 75.2039 47.454 76.2177 46.8439C76.7726 46.5099 77.3906 46.3287 78.025 46.2591C78.3535 46.223 78.6845 46.2161 79.0144 46.226C79.1137 46.229 79.4669 46.3083 79.5418 46.2556C79.6244 46.1974 79.7004 45.8787 79.747 45.7853C80.323 44.6309 81.3043 43.8098 82.4249 43.2749C83.69 42.6715 84.9332 42.1466 86.3428 42.4374C86.6411 42.499 86.9361 42.5818 87.2253 42.6794C87.3776 42.7308 87.5283 42.7877 87.6762 42.8513C87.7655 42.8897 87.8538 42.9303 87.9408 42.9739C88.0885 43.0478 88.091 43.0945 88.1856 42.9468C88.5483 42.3797 89.0676 41.9443 89.6921 41.7328C90.0628 41.6072 90.4531 41.5511 90.8417 41.5381C90.974 41.5337 91.317 41.6059 91.4354 41.5506C91.5529 41.4958 91.7233 41.1912 91.8228 41.0865C92.3601 40.5207 93.0319 40.1188 93.7656 39.9025C94.5223 39.6794 95.3442 39.6362 96.1211 39.7512C96.4947 39.8065 96.8412 39.9006 97.1714 40.0925C97.314 40.1753 97.4515 40.2694 97.6016 40.3375C97.6894 40.3774 97.8345 40.3916 97.9038 40.4625C97.8623 40.4201 98.5087 39.7196 98.574 39.6632C98.9218 39.3625 99.3349 39.1882 99.7823 39.1327C100.624 39.0284 101.502 39.2852 102.274 39.6105C102.671 39.7776 103.049 39.992 103.401 40.2448C103.57 40.3659 103.733 40.4956 103.89 40.6326C103.966 40.6989 104.039 40.7929 104.123 40.8449C104.232 40.912 104.277 40.8926 104.413 40.8784C105.108 40.8063 105.817 40.9111 106.454 41.2088C107.099 41.5101 107.648 41.9998 108.055 42.5994C108.079 42.6348 108.154 42.7927 108.185 42.8031C108.228 42.8174 108.342 42.7463 108.39 42.7298C108.556 42.6725 108.725 42.6252 108.896 42.5884C109.211 42.5204 109.534 42.4891 109.855 42.497C111.11 42.5276 112.279 43.16 113.132 44.097C114.026 45.0804 114.616 46.419 114.679 47.7804C114.689 48.0003 114.683 48.2215 114.658 48.4403C114.643 48.5746 114.623 48.5846 114.712 48.6742C114.811 48.7739 114.946 48.8522 115.052 48.945C115.399 49.248 115.704 49.5999 115.968 49.9824C116.401 50.6098 116.787 51.3032 116.973 52.0576C117.059 52.4079 117.099 52.7718 117.073 53.1334C117.061 53.3178 117.031 53.5011 116.985 53.6798C116.961 53.7725 116.933 53.8639 116.9 53.9539C116.882 54.0053 116.851 54.0575 116.839 54.1106C116.811 54.2399 116.761 54.1691 116.86 54.2907C116.998 54.4606 117.199 54.5966 117.354 54.7517C117.515 54.9115 117.669 55.0774 117.818 55.248C118.121 55.5935 118.409 55.9555 118.66 56.3433C119.144 57.088 119.505 57.9564 119.47 58.8728C119.455 59.2647 119.355 59.6508 119.18 59.9985C119.094 60.1686 118.991 60.3296 118.874 60.4777C118.813 60.5538 118.722 60.6185 118.721 60.714C118.721 60.8167 118.852 60.9564 118.907 61.0442C119.384 61.8085 119.824 62.6408 119.95 63.5567C120.065 64.4002 119.883 65.2828 119.462 66.0135C118.645 67.431 117.019 68.1647 115.468 68.1025C115.064 68.0863 114.662 68.0176 114.275 67.8939C114.017 69.2053 112.577 69.8684 111.44 70.0837C110.024 70.352 108.602 69.9285 107.481 69.0086C107.136 70.4108 105.314 70.8965 104.27 70.0656C104.014 69.8623 103.802 69.6047 103.628 69.3237C103.537 69.1759 103.479 69.0102 103.393 68.8611C103.284 68.6712 103.07 68.5394 102.91 68.3821C102.6 68.0758 102.338 67.7309 102.153 67.3274C102.056 67.1167 101.99 66.898 101.916 66.6787C101.849 66.4813 101.72 66.3297 101.608 66.157C101.957 66.0552 102.31 65.7722 102.571 65.5258C102.828 65.2841 102.995 64.8944 103.103 64.5604C103.354 63.7847 103.339 62.9349 103.231 62.1345C102.994 60.3778 101.986 58.6223 100.128 58.4992C99.2621 58.4418 97.1947 59.4492 96.4593 60.0435C95.6861 60.6684 95.595 63.1365 95.6304 63.3471C95.6522 63.4775 95.7313 63.6135 95.6638 63.7403C95.5155 64.019 95.0146 63.9042 94.7845 63.8393C94.3873 63.7271 94.035 63.4923 93.7078 63.2397C92.9949 62.6893 92.3326 62.0494 91.7538 61.3488C91.3076 60.8087 90.9135 60.2195 90.4226 59.7204C89.9342 59.2238 89.348 58.8527 88.6583 58.7723C87.908 58.6848 87.1508 58.8149 86.405 58.8934C85.6658 58.9712 84.9146 58.9922 84.2023 58.7408C84.0458 58.6854 83.8892 58.6219 83.7452 58.5371C83.6315 58.4702 83.4777 58.3111 83.3443 58.2985C83.137 58.2788 83.0139 58.6522 82.9146 58.8143C82.4247 59.6143 82.1314 60.5403 81.9769 61.4711C81.8234 62.3968 81.7416 63.2554 81.7796 64.1872C81.8078 64.8782 81.9951 65.6897 81.8019 66.3613C81.7156 66.6611 80.4287 67.4433 79.9107 67.4701C79.3927 67.497 78.6903 67.2541 78.4098 67.0242C78.1227 66.7888 77.9359 66.4678 77.8492 66.0994C77.7982 65.8827 77.7922 65.66 77.7472 65.4446C77.7095 65.2637 77.6726 65.0933 77.6819 64.9062C77.6997 64.5516 77.8557 64.2271 78.1156 63.9967C77.6721 63.849 77.2557 63.6169 76.8996 63.3042C76.5296 62.9793 76.1478 62.5511 75.9001 62.1174C75.6989 61.7652 75.5837 61.355 75.6357 60.9429C75.6903 60.5106 75.9536 60.1178 76.1725 59.7581C75.5226 59.6008 74.9038 59.3261 74.3349 58.9653C73.2286 58.2638 72.2523 57.176 72.0412 55.8007Z" fill="#191847"/>
<path fill-rule="evenodd" clip-rule="evenodd" d="M71.1664 143.765L57.8435 158.354C53.887 160.295 50.663 162.396 48.1713 164.656C47.6193 165.404 47.0393 166.821 49.7335 166.095C52.4277 165.369 55.2928 164.732 55.8353 165.634C56.3777 166.537 54.9228 168.007 55.908 169.178C56.5649 169.959 58.591 167.32 61.9865 161.261L76.0415 151.878L71.1664 143.765ZM130.066 133.257L120.035 135.16C129.788 154.898 135.021 165.36 135.733 166.547C137.334 169.216 135.727 174.032 135.122 176.572C138.658 177.495 137.344 171.892 141.819 173.133C145.903 174.265 149.337 177.052 153.217 173.436C153.694 172.992 154.06 171.583 152.469 170.831C148.504 168.957 142.657 165.474 141.721 164.144C140.444 162.33 136.559 152.035 130.066 133.257Z" fill="#915B3C"/>
<path fill-rule="evenodd" clip-rule="evenodd" d="M99.9067 86.5946L95.6264 86.6214C82.5809 103.379 80.796 131.253 64.3132 148.902L69.8615 153.942C101.912 143.627 104.491 109.552 99.9067 86.5946Z" fill="#E87613"/>
<path fill-rule="evenodd" clip-rule="evenodd" d="M124.314 142.054C107.398 142.054 94.9556 142.054 86.9857 142.054C85.28 142.054 85.6014 139.482 85.848 138.185C88.6937 123.211 99.8024 107.069 99.8024 85.7535L110.57 83.9908C119.475 98.9437 122.555 117.354 124.314 142.054Z" fill="#DDE3E9"/>
<path fill-rule="evenodd" clip-rule="evenodd" d="M124.013 98.6884C125.577 98.2191 126.815 97.1246 127.728 95.4049C131.663 87.9917 130.242 83.9102 126.036 82.5685C121.831 81.2269 118.08 83.9904 111.379 83.9904C111.015 83.9904 110.681 84.0143 110.378 84.062L107.007 84.2628C97.3361 118.479 94.669 141.308 99.0055 152.749H128.386C130.126 156.986 131.792 160.552 133.383 163.445H141.389C142.142 138.013 136.35 116.427 124.013 98.6884Z" fill="#FF9B21"/>
<path fill-rule="evenodd" clip-rule="evenodd" d="M121.988 135.176C121.064 143.247 119.562 149.105 117.482 152.749H128.385C126.355 147.806 124.222 141.949 121.988 135.176Z" fill="black" fill-opacity="0.1"/>
<path d="M215.649 27V83H202.689V37.4H191.489V27H215.649Z" fill="#626262"/>
</svg>
