<?xml version="1.0" encoding="utf-8"?>
<!-- Generator: Adobe Illustrator 24.0.0, SVG Export Plug-In . SVG Version: 6.00 Build 0)  -->
<svg version="1.1" id="Layer_1" xmlns="http://www.w3.org/2000/svg" xmlns:xlink="http://www.w3.org/1999/xlink" x="0px" y="0px"
	 viewBox="0 0 266.2 236.2" style="enable-background:new 0 0 266.2 236.2;" xml:space="preserve">
<style type="text/css">
	.st0{fill:#FFFFFF;}
	.st1{fill:#C4C4C4;}
	.st2{fill-rule:evenodd;clip-rule:evenodd;fill:#915B3C;}
	.st3{fill-rule:evenodd;clip-rule:evenodd;fill:#191847;}
	.st4{fill:none;stroke:#D0D0D0;}
	.st5{fill:none;}
	.st6{fill:#626262;}
</style>
<g>
	<path class="st0" d="M9.1,202.7C20.1,261,171.2,235,205.7,187c34.1-47.4,43.5-125.7-1.4-161.8C178.5,6.3,111.9,12.7,48.6,37.4
		C-14.7,62.1-2,144.3,9.1,202.7z"/>
	<ellipse class="st1" cx="104.6" cy="55" rx="54" ry="55"/>
	<path class="st2" d="M100,75.8c-4.1-4.8-6.9-10.7-6.4-17.3c1.3-19,27.9-14.8,33.1-5.2c5.2,9.6,4.6,33.9-2.1,35.6
		c-2.7,0.7-8.4-1-14.1-4.5L114,110H92.6L100,75.8z"/>
	<path class="st3" d="M107.4,74.5c-2.7,5.1-6.3,8.9-10,8.9c-7,0-11.9-9.3-11.9-19.2c0-0.3,0-0.7,0-1c-7.4,5-13.1,15-22.8,15
		c-13.3,0-18.6-26.6,0-26.6c12.6,0,18.8,1.8,24.2,4.5c1.1-3,2.7-5.4,4.6-7.2c0.5-0.5,1.2-1,2.1-1.5c0.6-0.3,1.2-0.6,1.8-0.8
		c3.2-1.2,7.9-2,13.1-2.2c1,0,1.9,0,2.9,0c0-4.9,4-8.8,8.9-8.8c4.9,0,8.9,4,8.9,8.9c0,4.7-3.7,8.6-8.4,8.9c-2.7,0.8-6.2,1.4-10,1.7
		c0.4,1.4,0.6,3,0.6,4.8c0,1.6-0.2,3.3-0.5,5c-0.8-1-1.9-1.6-3.1-1.6c-3.2,0-5.4,2.6-5.4,5.3C102.4,71.8,104.4,74.3,107.4,74.5z"/>
	<path d="M79.4,135.7l-1.3,1.4v2.5h-2.3v-9.8h2.3v4.6l4.3-4.6H85l-4.1,4.4l4.3,5.4h-2.6L79.4,135.7z M88.7,131.9
		c1.2,0,2.1,0.3,2.7,0.8c0.6,0.6,0.9,1.4,0.9,2.5v4.3h-2v-0.9c-0.4,0.7-1.2,1.1-2.3,1.1c-0.6,0-1.1-0.1-1.5-0.3
		c-0.4-0.2-0.7-0.5-1-0.8c-0.2-0.3-0.3-0.7-0.3-1.2c0-0.7,0.3-1.3,0.8-1.7c0.5-0.4,1.3-0.6,2.4-0.6h1.7c0-0.5-0.1-0.8-0.4-1.1
		c-0.3-0.3-0.7-0.4-1.3-0.4c-0.4,0-0.8,0.1-1.2,0.2c-0.4,0.1-0.7,0.3-1,0.5l-0.8-1.5c0.4-0.3,0.9-0.5,1.5-0.7
		C87.5,131.9,88.1,131.9,88.7,131.9z M88.6,138.1c0.4,0,0.7-0.1,1-0.3c0.3-0.2,0.5-0.4,0.6-0.8v-0.8h-1.5c-0.9,0-1.3,0.3-1.3,0.9
		c0,0.3,0.1,0.5,0.3,0.7C87.9,138.1,88.2,138.1,88.6,138.1z M99,139.1c-0.2,0.2-0.5,0.3-0.8,0.4c-0.3,0.1-0.6,0.1-1,0.1
		c-0.9,0-1.6-0.2-2.1-0.7c-0.5-0.5-0.7-1.1-0.7-2v-3.1h-1.2v-1.7h1.2v-1.8h2.2v1.8h1.9v1.7h-1.9v3.1c0,0.3,0.1,0.6,0.2,0.7
		c0.2,0.2,0.4,0.3,0.7,0.3c0.3,0,0.6-0.1,0.9-0.3L99,139.1z M107.1,135.8c0,0,0,0.2,0,0.6h-5.7c0.1,0.5,0.3,0.8,0.7,1.1
		c0.4,0.3,0.9,0.4,1.4,0.4c0.4,0,0.7-0.1,1-0.2c0.3-0.1,0.6-0.3,0.9-0.6l1.2,1.3c-0.7,0.8-1.7,1.2-3.1,1.2c-0.9,0-1.6-0.2-2.3-0.5
		c-0.7-0.3-1.2-0.8-1.5-1.4c-0.4-0.6-0.5-1.3-0.5-2c0-0.7,0.2-1.4,0.5-2c0.4-0.6,0.8-1.1,1.4-1.4c0.6-0.3,1.3-0.5,2.1-0.5
		c0.7,0,1.4,0.2,2,0.5c0.6,0.3,1.1,0.8,1.4,1.4C107,134.3,107.1,135,107.1,135.8z M103.2,133.5c-0.5,0-0.9,0.1-1.2,0.4
		c-0.3,0.3-0.5,0.7-0.6,1.1h3.7c-0.1-0.5-0.3-0.9-0.6-1.1C104.1,133.7,103.7,133.5,103.2,133.5z M114.1,139.7
		c-0.7,0-1.3-0.1-1.8-0.4c-0.6-0.3-1-0.6-1.4-1.1l1.3-1.5c0.5,0.7,1.1,1.1,1.8,1.1c0.9,0,1.4-0.5,1.4-1.6v-4.7h-3.4v-1.8h5.7v6.4
		c0,1.2-0.3,2.1-0.9,2.7C116.1,139.4,115.3,139.7,114.1,139.7z M122.5,131.9c1.2,0,2.1,0.3,2.7,0.8c0.6,0.6,0.9,1.4,0.9,2.5v4.3h-2
		v-0.9c-0.4,0.7-1.2,1.1-2.3,1.1c-0.6,0-1.1-0.1-1.5-0.3c-0.4-0.2-0.7-0.5-1-0.8s-0.3-0.7-0.3-1.2c0-0.7,0.3-1.3,0.8-1.7
		c0.5-0.4,1.3-0.6,2.4-0.6h1.7c0-0.5-0.1-0.8-0.4-1.1c-0.3-0.3-0.7-0.4-1.3-0.4c-0.4,0-0.8,0.1-1.2,0.2c-0.4,0.1-0.7,0.3-1,0.5
		l-0.8-1.5c0.4-0.3,0.9-0.5,1.5-0.7C121.3,131.9,121.9,131.9,122.5,131.9z M122.4,138.1c0.4,0,0.7-0.1,1-0.3
		c0.3-0.2,0.5-0.4,0.6-0.8v-0.8h-1.5c-0.9,0-1.3,0.3-1.3,0.9c0,0.3,0.1,0.5,0.3,0.7C121.7,138.1,122,138.1,122.4,138.1z M135.3,132
		l-3.4,8c-0.3,0.9-0.8,1.5-1.3,1.8c-0.5,0.4-1.1,0.5-1.8,0.5c-0.4,0-0.8-0.1-1.2-0.2c-0.4-0.1-0.7-0.3-0.9-0.5l0.8-1.6
		c0.2,0.1,0.4,0.3,0.6,0.4c0.2,0.1,0.4,0.1,0.7,0.1c0.3,0,0.5-0.1,0.7-0.2c0.2-0.1,0.4-0.4,0.5-0.7l0-0.1l-3.3-7.6h2.3l2.1,5.1
		l2.1-5.1H135.3z M66.4,151.7c1.1,0,2,0.2,2.6,0.7c0.6,0.5,0.9,1.2,0.9,2c0,1.3-0.4,2.2-1.2,2.9c-0.8,0.7-1.9,1-3.3,1h-2.8l-0.6,3.1
		h-1l2-9.8H66.4z M65.4,157.5c1.1,0,2-0.2,2.6-0.7c0.6-0.5,0.9-1.2,0.9-2.2c0-0.6-0.2-1.1-0.7-1.5s-1.1-0.5-1.9-0.5h-2.6l-1,4.9
		H65.4z M78.7,154.1l-1.5,7.4h-1l0.2-1.2c-0.7,0.8-1.6,1.2-2.8,1.2c-0.8,0-1.5-0.2-1.9-0.6c-0.5-0.4-0.7-1-0.7-1.8
		c0-0.3,0-0.5,0.1-0.8l0.8-4.2h1l-0.8,4.2c0,0.3-0.1,0.5-0.1,0.7c0,0.5,0.2,1,0.5,1.2c0.3,0.3,0.8,0.4,1.4,0.4
		c0.8,0,1.4-0.2,1.9-0.7c0.5-0.4,0.9-1.1,1-1.9l0.8-4H78.7z M84.8,154.1c0.6,0,1.2,0.1,1.7,0.4c0.5,0.3,0.9,0.6,1.1,1.1
		c0.3,0.5,0.4,1,0.4,1.7c0,0.8-0.2,1.6-0.5,2.3c-0.4,0.7-0.8,1.2-1.5,1.6c-0.6,0.4-1.3,0.6-2.1,0.6c-0.7,0-1.3-0.1-1.8-0.4
		c-0.5-0.3-0.8-0.7-1-1.2l-0.3,1.6h-1l2.1-10.4h1l-0.8,4.1c0.4-0.4,0.8-0.7,1.2-0.9C83.7,154.2,84.3,154.1,84.8,154.1z M83.9,160.7
		c0.6,0,1.1-0.1,1.6-0.4c0.5-0.3,0.9-0.7,1.1-1.2c0.3-0.5,0.4-1.1,0.4-1.8c0-0.7-0.2-1.3-0.6-1.7c-0.4-0.4-1-0.6-1.8-0.6
		c-0.6,0-1.2,0.1-1.6,0.4c-0.5,0.3-0.9,0.7-1.1,1.2c-0.3,0.5-0.4,1.1-0.4,1.8c0,0.7,0.2,1.3,0.6,1.7
		C82.5,160.5,83.1,160.7,83.9,160.7z M91.1,151.1h1l-2.1,10.4h-1L91.1,151.1z M94.1,154.1h1l-1.5,7.4h-1L94.1,154.1z M95,152.5
		c-0.2,0-0.4-0.1-0.5-0.2c-0.1-0.1-0.2-0.3-0.2-0.5c0-0.2,0.1-0.4,0.2-0.5c0.1-0.1,0.3-0.2,0.6-0.2c0.2,0,0.4,0.1,0.5,0.2
		c0.1,0.1,0.2,0.3,0.2,0.4c0,0.2-0.1,0.4-0.2,0.6C95.4,152.5,95.2,152.5,95,152.5z M99.5,161.6c-0.7,0-1.3-0.1-1.8-0.4
		c-0.5-0.3-0.9-0.6-1.2-1.1c-0.3-0.5-0.4-1-0.4-1.7c0-0.8,0.2-1.6,0.5-2.2c0.4-0.7,0.9-1.2,1.5-1.6c0.7-0.4,1.4-0.6,2.2-0.6
		c0.7,0,1.3,0.1,1.8,0.4c0.5,0.2,0.9,0.6,1.1,1.1l-0.8,0.5c-0.4-0.7-1.1-1.1-2.1-1.1c-0.6,0-1.2,0.1-1.7,0.4
		c-0.5,0.3-0.9,0.7-1.1,1.2c-0.3,0.5-0.4,1.1-0.4,1.8c0,0.7,0.2,1.3,0.6,1.7c0.4,0.4,1,0.6,1.8,0.6c0.5,0,0.9-0.1,1.3-0.3
		c0.4-0.2,0.7-0.5,1-0.8l0.7,0.5c-0.3,0.4-0.8,0.8-1.3,1C100.7,161.4,100.1,161.6,99.5,161.6z M122.9,151.7l-5.3,9.8h-1.1l-1.2-8.3
		l-4.6,8.3h-1.1l-1.3-9.8h1l1.2,8.4l4.6-8.4h1l1.2,8.5l4.6-8.5H122.9z M125.2,161.6c-0.7,0-1.3-0.1-1.8-0.4
		c-0.5-0.3-0.9-0.6-1.2-1.1c-0.3-0.5-0.4-1-0.4-1.7c0-0.8,0.2-1.6,0.5-2.2c0.4-0.7,0.9-1.2,1.5-1.6c0.7-0.4,1.4-0.6,2.2-0.6
		c1,0,1.8,0.3,2.4,0.8c0.6,0.6,0.9,1.3,0.9,2.3c0,0.8-0.2,1.6-0.5,2.3c-0.4,0.7-0.9,1.2-1.5,1.6C126.7,161.4,126,161.6,125.2,161.6z
		 M125.2,160.7c0.6,0,1.2-0.1,1.6-0.4c0.5-0.3,0.9-0.7,1.1-1.2c0.3-0.5,0.4-1.1,0.4-1.8c0-0.7-0.2-1.3-0.6-1.7
		c-0.4-0.4-1-0.6-1.8-0.6c-0.6,0-1.2,0.1-1.6,0.4c-0.5,0.3-0.9,0.7-1.1,1.2c-0.3,0.5-0.4,1.1-0.4,1.8c0,0.7,0.2,1.3,0.6,1.7
		C123.9,160.5,124.5,160.7,125.2,160.7z M132.6,155.5c0.3-0.5,0.7-0.8,1.2-1c0.5-0.2,1.1-0.4,1.8-0.4l-0.2,1l-0.3,0
		c-0.8,0-1.4,0.2-2,0.7c-0.5,0.5-0.8,1.1-1,2l-0.7,3.7h-1l1.5-7.4h1L132.6,155.5z M140,157.2l2.6,4.3h-1.2l-2.3-3.7l-2.1,1.6
		l-0.4,2.1h-1l2.1-10.4h1l-1.4,7l5.1-4h1.4L140,157.2z M145.7,161.6c-0.6,0-1.2-0.1-1.7-0.3c-0.5-0.2-0.9-0.4-1.2-0.6l0.5-0.8
		c0.3,0.2,0.6,0.4,1.1,0.6c0.5,0.1,0.9,0.2,1.4,0.2c0.7,0,1.2-0.1,1.6-0.3c0.4-0.2,0.6-0.6,0.6-1c0-0.2-0.1-0.4-0.2-0.6
		c-0.1-0.1-0.3-0.2-0.6-0.3c-0.2-0.1-0.6-0.2-1-0.3c-0.5-0.1-0.9-0.2-1.2-0.3c-0.3-0.1-0.6-0.3-0.8-0.5c-0.2-0.2-0.3-0.6-0.3-1
		c0-0.7,0.3-1.3,0.9-1.7c0.6-0.4,1.4-0.6,2.3-0.6c0.5,0,0.9,0.1,1.4,0.2c0.5,0.1,0.8,0.3,1.1,0.5l-0.4,0.8c-0.3-0.2-0.6-0.4-1-0.5
		c-0.4-0.1-0.8-0.2-1.2-0.2c-0.7,0-1.2,0.1-1.6,0.4c-0.4,0.2-0.6,0.6-0.6,1c0,0.2,0.1,0.4,0.2,0.6c0.2,0.1,0.4,0.3,0.6,0.3
		c0.2,0.1,0.6,0.2,1,0.2c0.5,0.1,0.9,0.2,1.2,0.3c0.3,0.1,0.6,0.3,0.8,0.5c0.2,0.2,0.3,0.6,0.3,1c0,0.7-0.3,1.3-0.9,1.7
		C147.5,161.4,146.7,161.6,145.7,161.6z"/>
	<path class="st4" d="M45.7,173h128.7 M45.7,189h102.9"/>
	<rect x="150.3" y="128" class="st5" width="73.3" height="70"/>
	<path class="st6" d="M266.2,69.2v10.6h-42.3v-8.4L245.5,51c2.3-2.2,3.8-4.1,4.6-5.6c0.8-1.6,1.2-3.2,1.2-4.7c0-2.2-0.8-3.9-2.3-5.1
		c-1.5-1.2-3.7-1.8-6.6-1.8c-2.5,0-4.7,0.5-6.6,1.4c-2,0.9-3.6,2.3-5,4.2l-9.4-6.1c2.2-3.3,5.2-5.8,9-7.6c3.8-1.9,8.2-2.8,13.2-2.8
		c4.2,0,7.8,0.7,10.9,2.1c3.1,1.3,5.6,3.3,7.3,5.8c1.8,2.5,2.6,5.4,2.6,8.7c0,3-0.6,5.9-1.9,8.6c-1.3,2.7-3.8,5.7-7.4,9.1
		l-12.9,12.2H266.2z"/>
</g>
</svg>
