<svg width="404" height="689" viewBox="0 0 404 689" fill="none" xmlns="http://www.w3.org/2000/svg">
<path fill-rule="evenodd" clip-rule="evenodd" d="M194.539 86.0448C186.839 77.0063 181.628 65.9296 182.498 53.5177C185.008 17.7558 234.789 25.6229 244.473 43.6725C254.157 61.7221 253.006 107.506 240.491 110.732C235.5 112.019 224.867 108.867 214.046 102.345L220.838 150.398H180.732L194.539 86.0448Z" fill="#B28B67"/>
<path fill-rule="evenodd" clip-rule="evenodd" d="M262.242 18.6506C261.411 15.7313 259.177 13.2318 256.167 12.4902C255.437 12.3104 254.683 12.2377 253.932 12.268C253.662 12.2788 253.587 12.3565 253.461 12.168C253.367 12.0283 253.365 11.687 253.327 11.5229C253.207 11.0123 253.057 10.5082 252.873 10.0171C252.243 8.34206 251.184 6.85965 249.908 5.61088C247.521 3.27467 244.296 1.66232 240.946 1.37063C239.112 1.21106 237.291 1.50901 235.557 2.10558C234.66 2.41439 233.789 2.79894 232.942 3.22408C232.687 3.35204 231.858 3.97878 231.602 3.93818C231.319 3.8934 230.751 3.19039 230.521 3.01392C227.678 0.832555 224.167 -0.0250891 220.625 0.000557136C216.628 0.0306605 212.779 0.230394 209.445 2.66713C208.74 3.18304 208.067 3.74788 207.428 4.34258C207.091 4.65568 206.764 4.98052 206.453 5.31886C206.265 5.52298 206.082 5.73171 205.906 5.94604C205.607 6.30984 205.655 6.42935 205.237 6.17551C203.633 5.20078 201.773 4.7449 199.901 4.97503C198.789 5.11177 197.707 5.44561 196.68 5.88502C196.33 6.0346 195.52 6.63127 195.148 6.63709C194.778 6.6428 193.98 6.08969 193.599 5.94911C191.541 5.18958 189.323 5.00236 187.161 5.35332C184.93 5.71547 182.739 6.60549 180.849 7.83538C179.94 8.427 179.146 9.0825 178.509 9.9622C178.234 10.342 177.986 10.7438 177.674 11.096C177.491 11.3022 177.13 11.5138 177.032 11.7747C177.091 11.6184 174.592 10.6553 174.357 10.5938C173.101 10.2658 171.822 10.3323 170.592 10.737C168.279 11.4981 166.29 13.2048 164.656 14.9546C163.816 15.8534 163.082 16.8469 162.458 17.9054C162.159 18.4124 161.886 18.9339 161.636 19.4665C161.515 19.7245 161.434 20.0473 161.275 20.2797C161.069 20.5792 160.931 20.5849 160.558 20.7155C158.665 21.3786 156.94 22.5009 155.626 24.0175C154.297 25.5518 153.435 27.4412 153.073 29.431C153.052 29.5482 153.039 30.0339 152.97 30.0973C152.876 30.1847 152.496 30.1461 152.352 30.163C151.853 30.2215 151.358 30.3085 150.87 30.4242C149.969 30.6373 149.093 30.9509 148.264 31.3611C145.032 32.9602 142.721 35.9581 141.589 39.3314C140.403 42.8715 140.424 46.9272 141.842 50.4013C142.071 50.9624 142.344 51.507 142.664 52.0223C142.861 52.3386 142.924 52.3393 142.797 52.6712C142.654 53.0404 142.394 53.3991 142.225 53.7598C141.674 54.9371 141.288 56.1856 141.045 57.4608C140.646 59.5526 140.448 61.7509 140.842 63.8586C141.025 64.8373 141.343 65.7941 141.83 66.6657C142.078 67.1102 142.368 67.5317 142.696 67.9217C142.866 68.1241 143.046 68.3175 143.235 68.5027C143.343 68.6085 143.485 68.7012 143.577 68.8194C143.801 69.1075 143.848 68.8706 143.733 69.2938C143.571 69.8854 143.204 70.4691 142.98 71.0448C142.748 71.6381 142.539 72.2395 142.348 72.8468C141.961 74.0766 141.633 75.3287 141.428 76.6022C141.035 79.0474 141.104 81.6528 142.261 83.897C142.755 84.8569 143.465 85.699 144.325 86.354C144.746 86.6745 145.203 86.9507 145.681 87.1775C145.927 87.2943 146.241 87.3443 146.353 87.5822C146.474 87.8379 146.295 88.3456 146.254 88.6315C145.898 91.1185 145.72 93.7298 146.459 96.1669C147.14 98.4117 148.639 100.394 150.586 101.706C154.362 104.251 159.452 104.108 163.419 102.07C164.453 101.539 165.421 100.879 166.284 100.101C168.482 103.06 173.005 102.966 176.217 102.123C180.219 101.073 183.43 98.2902 185.28 94.634C187.81 97.7138 193.119 96.7146 194.874 93.3735C195.303 92.5558 195.558 91.6546 195.683 90.7427C195.749 90.2631 195.707 89.7793 195.757 89.3036C195.82 88.6974 196.225 88.1083 196.458 87.5218C196.911 86.3805 197.193 85.2015 197.205 83.9704C197.211 83.3276 197.129 82.7012 197.068 82.0636C197.013 81.4897 197.173 80.9549 197.263 80.3884C196.237 80.5574 194.986 80.2806 194.019 79.983C193.07 79.691 192.181 78.9218 191.512 78.2193C189.957 76.5881 189.006 74.4497 188.357 72.3215C186.93 67.6504 187.515 62.0461 192.213 59.4825C194.402 58.2883 200.959 58.2922 203.566 58.8824C206.307 59.503 209.414 65.5511 209.567 66.1196C209.662 66.4714 209.614 66.9069 209.937 67.1413C210.648 67.6567 211.819 66.7622 212.343 66.3207C213.247 65.5588 213.892 64.545 214.451 63.5173C215.668 61.2786 216.649 58.8777 217.342 56.4268C217.876 54.5373 218.218 52.5888 218.916 50.7474C219.611 48.9151 220.706 47.2774 222.41 46.2395C224.262 45.1103 226.386 44.5156 228.42 43.806C230.436 43.1028 232.418 42.2433 233.981 40.7511C234.324 40.423 234.658 40.0743 234.935 39.688C235.153 39.383 235.369 38.7992 235.702 38.6058C236.219 38.305 236.974 39.0873 237.421 39.3713C239.627 40.7727 241.468 42.7272 242.953 44.8624C244.43 46.9859 245.641 49.0293 246.626 51.4005C247.356 53.1591 247.812 55.4114 249.096 56.8526C249.669 57.4962 253.932 57.8855 255.312 57.3237C256.693 56.7618 258.24 55.3029 258.703 54.3887C259.178 53.4529 259.291 52.4249 259.088 51.4005C258.969 50.7978 258.726 50.2348 258.592 49.6428C258.48 49.1456 258.378 48.6755 258.136 48.22C257.678 47.3568 256.894 46.7363 255.949 46.4768C256.933 45.57 257.747 44.4852 258.311 43.2726C258.897 42.0127 259.394 40.4806 259.535 39.0978C259.649 37.9747 259.473 36.8111 258.858 35.8459C258.213 34.8334 257.07 34.1729 256.082 33.5413C257.592 32.3598 258.884 30.9229 259.947 29.3321C262.013 26.2384 263.291 22.3388 262.242 18.6506Z" fill="#191847"/>
<path fill-rule="evenodd" clip-rule="evenodd" d="M167.489 288.685L247.837 501.291L304.155 657.994H336.268L258.853 288.685L167.489 288.685Z" fill="#1F28CF"/>
<path fill-rule="evenodd" clip-rule="evenodd" d="M147.632 288.685C146.759 361.634 147.39 459.849 145.355 464.397C143.999 467.428 101.802 501.969 18.7642 568.018L35.3162 596.164C133.901 532.589 185.713 496.566 190.754 488.096C198.314 475.391 236.296 358.474 256.058 288.685H147.632Z" fill="#2B44FF"/>
<path fill-rule="evenodd" clip-rule="evenodd" d="M301.174 688.073L302.845 652.981H337.938C354.578 664.678 376.302 674.148 403.11 681.389V688.073H339.609L317.885 684.731V688.073H301.174Z" fill="#191847"/>
<path fill-rule="evenodd" clip-rule="evenodd" d="M309.131 267.546L362.436 306.689C376.893 310.59 388.972 315.443 398.672 321.25C400.963 323.337 403.732 327.566 394.23 326.835C384.727 326.104 374.699 325.763 373.388 329.004C372.077 332.245 377.827 336.121 375.177 340.495C373.41 343.41 365.062 336.1 350.133 318.563L297.348 296.674L309.131 267.546ZM104.468 268.897L139.389 269.034C117.827 338.641 106.187 375.574 104.468 379.833C100.601 389.416 108.784 404.01 112.283 411.853C100.886 416.953 102.101 398.067 87.7238 404.755C74.6013 410.86 64.6191 421.922 49.4579 412.567C47.5939 411.417 45.5513 407.087 50.4865 403.703C62.7819 395.272 80.5004 380.516 82.8944 375.66C86.1591 369.036 93.3503 333.449 104.468 268.897Z" fill="#B28B67"/>
<path fill-rule="evenodd" clip-rule="evenodd" d="M203.711 122.363L218.161 119.885C271.775 166.199 293.796 255.176 359.514 302.31L343.696 321.917C229.688 307.801 201.431 199.271 203.711 122.363Z" fill="#E87613"/>
<path fill-rule="evenodd" clip-rule="evenodd" d="M140.717 303.956C198.657 303.956 241.276 303.956 268.574 303.956C274.417 303.956 273.316 295.52 272.471 291.263C262.724 242.133 224.675 189.172 224.675 119.236L187.795 113.453C157.29 162.513 146.741 222.917 140.717 303.956Z" fill="#DDE3E9"/>
<path fill-rule="evenodd" clip-rule="evenodd" d="M141.744 161.677C136.388 160.137 132.146 156.546 129.019 150.904C115.539 126.581 120.407 113.19 134.813 108.788C149.218 104.386 162.065 113.453 185.017 113.453C186.265 113.453 187.409 113.531 188.447 113.688L199.993 114.347C233.117 226.611 242.253 301.512 227.399 339.049H126.766C120.804 352.952 115.098 364.65 109.649 374.142H82.2287C79.648 290.7 99.4864 219.878 141.744 161.677Z" fill="#FF9B21"/>
<path fill-rule="evenodd" clip-rule="evenodd" d="M148.679 281.393C151.844 307.873 156.988 327.092 164.111 339.049H126.766C133.721 322.831 141.025 303.613 148.679 281.393H148.679Z" fill="black" fill-opacity="0.1"/>
<path fill-rule="evenodd" clip-rule="evenodd" d="M0.396307 580.057L28.2367 558.869L50.6999 585.639C52.4278 605.821 59.1098 628.455 70.7459 653.541L65.6468 657.82L24.9989 609.377L13.6427 590.666L11.0931 592.805L0.396307 580.057Z" fill="#191847"/>
</svg>
