<svg width="486" height="552" viewBox="0 0 486 552" fill="none" xmlns="http://www.w3.org/2000/svg">
<path d="M37.1158 205.125C-35.665 267.254 158.897 454.042 258.613 455.4C357.049 456.74 457.4 375.546 467.589 291.369C470.9 244.475 445.619 80.2816 352.671 24.8918C259.724 -30.498 109.897 142.996 37.1158 205.125Z" fill="#F5F5F5"/>
<path d="M244.343 277.929C244.343 277.929 266.279 290.289 273.115 303.096C279.182 314.463 278.201 322.449 278.02 334.922C277.892 343.693 275.044 357.107 275.044 357.107C275.044 357.107 264.092 366.295 255.513 365.728C251.555 365.466 245.697 362.969 245.697 362.969L230.344 353.827L232.343 291.637L234.73 273L244.343 277.929Z" fill="black" stroke="black"/>
<path fill-rule="evenodd" clip-rule="evenodd" d="M227.053 230.624C232.161 227.104 236.289 222.219 237.527 215.839C241.097 197.453 214.912 194.692 207.585 202.491C200.258 210.29 194.649 233.548 200.528 236.868C202.872 238.192 208.664 238.04 215.006 236.212L205.081 259.541L225.319 264.964L227.053 230.624Z" fill="#B28B67"/>
<path fill-rule="evenodd" clip-rule="evenodd" d="M202.002 187.462C202.816 186.101 204.281 185.142 205.901 185.175C206.293 185.183 206.684 185.248 207.059 185.365C207.193 185.407 207.221 185.456 207.31 185.378C207.376 185.32 207.423 185.148 207.465 185.071C207.594 184.829 207.738 184.595 207.897 184.372C208.442 183.612 209.176 183.007 209.989 182.55C211.509 181.693 213.355 181.316 215.085 181.622C216.032 181.789 216.91 182.186 217.705 182.721C218.116 182.998 218.503 183.31 218.873 183.639C218.985 183.738 219.318 184.167 219.453 184.181C219.601 184.196 219.983 183.918 220.123 183.86C221.853 183.144 223.741 183.186 225.524 183.678C227.537 184.234 229.452 184.855 230.805 186.535C231.092 186.891 231.354 187.267 231.597 187.653C231.725 187.857 231.845 188.065 231.957 188.278C232.024 188.406 232.088 188.536 232.148 188.668C232.249 188.892 232.209 188.946 232.454 188.874C233.396 188.6 234.396 188.621 235.309 188.99C235.852 189.21 236.353 189.524 236.812 189.885C236.968 190.008 237.296 190.418 237.483 190.472C237.669 190.524 238.147 190.353 238.358 190.334C239.499 190.229 240.643 190.434 241.687 190.904C242.764 191.388 243.749 192.133 244.537 193.01C244.915 193.431 245.227 193.869 245.429 194.399C245.517 194.628 245.588 194.864 245.698 195.084C245.762 195.213 245.916 195.369 245.93 195.514C245.921 195.427 247.312 195.279 247.44 195.279C248.118 195.284 248.754 195.49 249.32 195.861C250.384 196.557 251.157 197.688 251.745 198.792C252.047 199.359 252.284 199.959 252.455 200.578C252.537 200.874 252.605 201.174 252.659 201.477C252.685 201.623 252.682 201.797 252.731 201.936C252.795 202.115 252.864 202.136 253.034 202.253C253.899 202.843 254.618 203.643 255.076 204.586C255.539 205.54 255.719 206.61 255.633 207.663C255.627 207.725 255.568 207.971 255.594 208.013C255.63 208.07 255.827 208.101 255.897 208.129C256.141 208.226 256.379 208.337 256.61 208.462C257.036 208.691 257.436 208.968 257.798 209.287C259.213 210.531 259.974 212.356 260.089 214.211C260.209 216.158 259.65 218.202 258.464 219.763C258.273 220.015 258.062 220.253 257.83 220.47C257.688 220.603 257.656 220.595 257.676 220.779C257.698 220.985 257.78 221.201 257.817 221.406C257.936 222.075 257.962 222.757 257.912 223.433C257.831 224.543 257.633 225.679 257.15 226.689C256.925 227.158 256.635 227.598 256.271 227.972C256.086 228.163 255.883 228.336 255.665 228.489C255.552 228.568 255.434 228.641 255.314 228.709C255.245 228.748 255.161 228.775 255.099 228.822C254.947 228.937 254.955 228.812 254.956 229.041C254.958 229.361 255.064 229.705 255.099 230.026C255.136 230.357 255.16 230.689 255.174 231.021C255.203 231.694 255.199 232.37 255.13 233.04C254.998 234.327 254.611 235.633 253.724 236.609C253.345 237.026 252.873 237.355 252.35 237.569C252.094 237.674 251.827 237.752 251.555 237.802C251.415 237.827 251.25 237.81 251.161 237.915C251.065 238.028 251.087 238.308 251.069 238.458C250.912 239.761 250.649 241.103 249.947 242.233C249.299 243.273 248.275 244.071 247.115 244.47C244.866 245.244 242.317 244.483 240.59 242.918C240.14 242.51 239.741 242.047 239.411 241.537C237.902 242.733 235.632 242.074 234.125 241.215C232.248 240.144 231.004 238.305 230.564 236.21C228.871 237.422 226.327 236.2 225.894 234.277C225.788 233.806 225.781 233.317 225.841 232.84C225.872 232.589 225.959 232.35 225.998 232.104C226.048 231.789 225.924 231.437 225.886 231.11C225.811 230.473 225.829 229.84 225.989 229.217C226.073 228.892 226.198 228.586 226.316 228.273C226.421 227.991 226.413 227.699 226.444 227.401C226.939 227.625 227.607 227.655 228.135 227.635C228.654 227.616 229.206 227.348 229.639 227.084C230.645 226.472 231.413 225.521 232.029 224.535C233.38 222.371 233.843 219.464 231.819 217.535C230.876 216.636 227.566 215.752 226.171 215.697C224.704 215.64 222.318 218.271 222.164 218.537C222.069 218.702 222.034 218.928 221.839 219.003C221.411 219.167 220.941 218.557 220.736 218.264C220.383 217.757 220.195 217.158 220.052 216.564C219.74 215.27 219.57 213.926 219.552 212.595C219.538 211.569 219.629 210.54 219.525 209.516C219.422 208.498 219.091 207.523 218.372 206.769C217.59 205.949 216.598 205.362 215.668 204.729C214.745 204.101 213.862 203.4 213.275 202.435C213.146 202.223 213.025 202.002 212.937 201.77C212.868 201.586 212.838 201.263 212.697 201.12C212.476 200.898 211.99 201.191 211.726 201.274C210.423 201.683 209.229 202.42 208.192 203.297C207.159 204.169 206.272 205.036 205.454 206.099C204.848 206.888 204.314 207.963 203.471 208.517C203.094 208.764 200.891 208.384 200.27 207.914C199.649 207.444 199.066 206.498 198.956 205.974C198.843 205.438 198.925 204.904 199.166 204.414C199.307 204.126 199.506 203.875 199.653 203.594C199.777 203.359 199.892 203.135 200.076 202.938C200.424 202.565 200.903 202.357 201.415 202.354C201.042 201.764 200.777 201.106 200.656 200.418C200.531 199.703 200.488 198.863 200.604 198.146C200.698 197.564 200.944 197 201.385 196.596C201.847 196.173 202.513 195.994 203.097 195.809C202.495 195.009 202.037 194.109 201.716 193.162C201.092 191.322 200.974 189.181 202.002 187.462Z" fill="#191847"/>
<path fill-rule="evenodd" clip-rule="evenodd" d="M225.092 342.812L183.117 453.88L153.695 535.744H136.919L177.362 342.812L225.092 342.812Z" fill="#1F28CF"/>
<path fill-rule="evenodd" clip-rule="evenodd" d="M235.464 342.812C235.921 380.922 235.591 432.231 236.654 434.606C237.362 436.19 259.407 454.234 302.787 488.739L294.14 503.443C242.638 470.231 215.57 451.412 212.937 446.987C208.988 440.35 189.145 379.271 178.821 342.812H235.464Z" fill="#2B44FF"/>
<path fill-rule="evenodd" clip-rule="evenodd" d="M155.252 551.457L154.379 533.125H136.047C127.354 539.235 116.005 544.182 102 547.965V551.457H135.174L146.522 549.711V551.457H155.252Z" fill="#191847"/>
<path fill-rule="evenodd" clip-rule="evenodd" d="M151.096 331.769L123.249 352.218C115.696 354.256 109.386 356.791 104.319 359.825C103.122 360.915 101.675 363.124 106.639 362.742C111.603 362.361 116.842 362.182 117.527 363.876C118.212 365.569 115.208 367.594 116.593 369.878C117.516 371.401 121.877 367.582 129.676 358.421L157.252 346.986L151.096 331.769ZM258.014 332.475L239.771 332.547C251.035 368.91 257.116 388.204 258.014 390.429C260.034 395.435 255.76 403.06 253.932 407.157C259.885 409.821 259.251 399.955 266.762 403.449C273.617 406.638 278.832 412.417 286.752 407.53C287.726 406.929 288.793 404.667 286.215 402.899C279.792 398.495 270.535 390.786 269.285 388.249C267.579 384.789 263.822 366.198 258.014 332.475Z" fill="#B28B67"/>
<path fill-rule="evenodd" clip-rule="evenodd" d="M206.168 255.924L198.619 254.629C170.611 278.824 159.107 325.306 124.775 349.93L133.038 360.173C192.597 352.798 207.36 296.101 206.168 255.924Z" fill="#E87613"/>
<path fill-rule="evenodd" clip-rule="evenodd" d="M239.077 350.79C208.809 350.79 186.544 350.79 172.283 350.79C169.231 350.79 169.806 346.383 170.247 344.159C175.339 318.493 195.217 290.825 195.217 254.29L214.483 251.269C230.419 276.899 235.93 308.454 239.077 350.79Z" fill="#DDE3E9"/>
<path fill-rule="evenodd" clip-rule="evenodd" d="M238.541 276.462C241.339 275.657 243.555 273.781 245.188 270.834C252.23 258.127 249.687 251.131 242.161 248.832C234.636 246.532 227.925 251.269 215.934 251.269C215.282 251.269 214.685 251.31 214.142 251.391L208.111 251.736C190.806 310.384 186.033 349.513 193.793 369.123H246.365C249.48 376.386 252.461 382.497 255.307 387.456H269.632C270.98 343.865 260.616 306.867 238.541 276.462Z" fill="#FF9B21"/>
<path fill-rule="evenodd" clip-rule="evenodd" d="M234.918 339.003C233.264 352.836 230.577 362.877 226.856 369.123H246.366C242.732 360.651 238.916 350.611 234.918 339.003H234.918Z" fill="black" fill-opacity="0.1"/>
<path fill-rule="evenodd" clip-rule="evenodd" d="M317.999 498.634L303.394 487.519L291.61 501.563C290.703 512.15 287.198 524.024 281.094 537.184L283.769 539.428L305.092 514.016L311.05 504.199L312.387 505.322L317.999 498.634Z" fill="#191847"/>
<path d="M242.273 279C242.273 279 234.772 306.752 233.794 320.328C232.816 333.904 231.33 342.356 239.215 354.754C247.099 367.153 244.636 370 244.636 370" stroke="black" stroke-width="6"/>
<ellipse cx="61.5" cy="148" rx="61.5" ry="62" fill="#FFDB21"/>
</svg>
