<svg width="460" height="436" viewBox="0 0 460 436" fill="none" xmlns="http://www.w3.org/2000/svg">
<path d="M439.377 161.577C518.377 215.577 344.877 422.077 245.877 434.077C148.147 445.923 39.6976 375.911 20.5769 293.304C12.2769 247.031 19.8769 81.0774 106.377 16.0774C192.877 -48.9226 360.377 107.577 439.377 161.577Z" fill="#F5F5F5"/>
<path fill-rule="evenodd" clip-rule="evenodd" d="M278 274.577H163C154.163 274.577 147 281.741 147 290.577V382.577C147 391.414 154.163 398.577 163 398.577H278C286.837 398.577 294 391.414 294 382.577V290.577C294 281.741 286.837 274.577 278 274.577ZM262 302.577C264.209 302.577 266 304.368 266 306.577V366.577C266 368.786 264.209 370.577 262 370.577H179C176.791 370.577 175 368.786 175 366.577V306.577C175 304.368 176.791 302.577 179 302.577H262Z" fill="#C5CFD6"/>
<path fill-rule="evenodd" clip-rule="evenodd" d="M47.841 393.577C67.5569 369.501 80.8971 351.653 87.8617 340.031C99.7868 320.132 109.547 302.425 112.627 295.662C119.972 279.532 95.7181 271.98 90.229 279.503C81.9209 290.89 64.178 326.72 37 386.995L47.841 393.577Z" fill="#B28B67"/>
<path fill-rule="evenodd" clip-rule="evenodd" d="M88.2424 386.577L124.935 294.214C132.783 277.377 94.8843 266.309 89.1167 274.145C76.0227 291.934 44.9012 362.111 41 367.411L88.2424 386.577Z" fill="#1F28CF"/>
<path fill-rule="evenodd" clip-rule="evenodd" d="M185.967 368.054C178.82 357.628 152.822 322.552 138.661 308.038C134.592 303.868 130.622 299.865 126.866 296.135C115.704 285.047 93.4765 303.683 104.618 313.782C132.365 338.932 172.849 372.884 176.232 375.911C180.972 380.154 190.459 374.607 185.967 368.054Z" fill="#915B3C"/>
<path fill-rule="evenodd" clip-rule="evenodd" d="M184.296 363.344C186.758 365.371 188.359 367.027 189.101 368.311C190.002 369.873 191.058 372.302 192.267 375.598C190.456 376.644 174.174 386.045 143.422 403.799C139.73 400.336 139.155 397.647 141.696 395.734C144.238 393.82 146.335 392.206 147.988 390.892L164.848 367.664C165.172 367.217 165.798 367.118 166.245 367.442C166.252 367.448 166.26 367.453 166.267 367.459L169.77 370.156C172.984 369.876 175.382 369.279 176.965 368.365C178.251 367.622 179.727 366.078 181.394 363.731L181.394 363.731C182.033 362.83 183.281 362.618 184.182 363.258C184.221 363.285 184.259 363.314 184.296 363.344Z" fill="#E4E4E4"/>
<path fill-rule="evenodd" clip-rule="evenodd" d="M56.3219 389.979C57.4406 392.966 58 395.2 58 396.683C58 398.486 57.6996 401.118 57.0988 404.577C55.0068 404.577 36.2062 404.577 0.696945 404.577C-0.768738 399.732 0.0773392 397.116 3.23518 396.729C6.39301 396.343 9.01628 395.994 11.105 395.683L37.32 383.996C37.8244 383.771 38.4157 383.998 38.6405 384.502C38.6444 384.511 38.6481 384.52 38.6517 384.528L40.3368 388.616C43.2601 389.98 45.6356 390.662 47.4633 390.662C48.9483 390.662 50.999 390.062 53.6155 388.863L53.6155 388.863C54.6196 388.402 55.8067 388.843 56.267 389.847C56.2869 389.891 56.3052 389.935 56.3219 389.979Z" fill="#E4E4E4"/>
<path fill-rule="evenodd" clip-rule="evenodd" d="M138.138 298.827C168.635 293.859 189.062 290.462 199.42 288.635C228.943 283.43 237.552 267.542 232.462 232.879H178.066C170.867 234.958 140.79 247.815 87.8325 271.449C78.3045 276.179 80.079 290.125 81.8205 294.719C81.8915 294.907 97.9539 322.43 130.008 377.29L174.506 348.943L138.054 302.168C137.092 300.229 137.12 299.115 138.138 298.827Z" fill="#2B44FF"/>
<path fill-rule="evenodd" clip-rule="evenodd" d="M181.836 94.9761C184.091 86.8136 184.123 78.0832 179.821 70.3222C167.425 47.9607 137.615 68.0435 136.793 82.6285C135.97 97.2135 150.507 126.463 159.569 124.778C163.183 124.106 169.107 118.866 174.137 111.389L184.223 144.498L210.148 132.416L181.836 94.9761Z" fill="#B28B67"/>
<path fill-rule="evenodd" clip-rule="evenodd" d="M116.861 72.2293C116.519 70.092 117.21 67.8032 118.933 66.417C119.35 66.0807 119.816 65.8067 120.31 65.5999C120.488 65.5257 120.56 65.5532 120.585 65.3934C120.603 65.275 120.502 65.0537 120.477 64.936C120.401 64.5699 120.345 64.199 120.317 63.8259C120.219 62.5534 120.457 61.2762 120.906 60.0845C121.745 57.8553 123.344 55.8414 125.422 54.6434C126.559 53.9878 127.826 53.6319 129.127 53.4953C129.8 53.4245 130.478 53.4109 131.154 53.4303C131.358 53.4361 132.082 53.5918 132.235 53.4884C132.405 53.3742 132.56 52.7485 132.656 52.5651C133.837 50.2985 135.848 48.6864 138.145 47.6361C140.738 46.4514 143.286 45.4209 146.175 45.9918C146.787 46.1126 147.391 46.2753 147.984 46.467C148.296 46.5678 148.605 46.6795 148.909 46.8044C149.091 46.8798 149.273 46.9596 149.451 47.0451C149.754 47.1903 149.759 47.282 149.952 46.9919C150.696 45.8785 151.76 45.0237 153.04 44.6083C153.8 44.3617 154.6 44.2516 155.397 44.2261C155.668 44.2175 156.371 44.3593 156.614 44.2507C156.854 44.143 157.204 43.545 157.408 43.3393C158.509 42.2285 159.886 41.4394 161.39 41.0148C162.941 40.5768 164.626 40.492 166.218 40.7176C166.984 40.8262 167.694 41.011 168.371 41.3877C168.663 41.5504 168.945 41.7352 169.252 41.8689C169.433 41.9473 169.73 41.9751 169.872 42.1143C169.787 42.031 171.112 40.6558 171.246 40.5449C171.959 39.9545 172.805 39.6123 173.722 39.5034C175.446 39.2987 177.246 39.8028 178.83 40.4415C179.644 40.7696 180.418 41.1905 181.14 41.6868C181.486 41.9245 181.819 42.1793 182.142 42.4482C182.298 42.5785 182.447 42.763 182.62 42.8651C182.843 42.9967 182.934 42.9588 183.215 42.9309C184.638 42.7893 186.091 42.9951 187.397 43.5796C188.719 44.171 189.845 45.1326 190.679 46.3099C190.728 46.3793 190.882 46.6895 190.946 46.7098C191.033 46.7379 191.267 46.5983 191.365 46.5658C191.705 46.4535 192.052 46.3606 192.402 46.2882C193.048 46.1547 193.709 46.0934 194.369 46.1088C196.94 46.1688 199.337 47.4104 201.085 49.2503C202.918 51.1811 204.126 53.8092 204.256 56.4823C204.277 56.914 204.265 57.3482 204.213 57.7778C204.181 58.0415 204.14 58.0611 204.323 58.2371C204.526 58.4329 204.802 58.5865 205.02 58.7688C205.731 59.3637 206.357 60.0546 206.898 60.8056C207.786 62.0375 208.577 63.3989 208.957 64.8801C209.134 65.5678 209.216 66.2823 209.164 66.9923C209.137 67.3544 209.077 67.7143 208.983 68.065C208.934 68.2471 208.875 68.4266 208.809 68.6032C208.771 68.7042 208.707 68.8067 208.683 68.9108C208.625 69.1647 208.523 69.0257 208.726 69.2644C209.008 69.5981 209.421 69.865 209.74 70.1695C210.068 70.4834 210.384 70.8091 210.691 71.1441C211.312 71.8224 211.901 72.5331 212.417 73.2946C213.408 74.7568 214.148 76.4618 214.076 78.2609C214.046 79.0304 213.841 79.7885 213.482 80.4711C213.306 80.8052 213.095 81.1212 212.854 81.412C212.73 81.5615 212.542 81.6884 212.541 81.876C212.54 82.0776 212.809 82.3519 212.921 82.5244C213.901 84.0249 214.803 85.6591 215.059 87.4573C215.295 89.1135 214.923 90.8464 214.06 92.281C212.386 95.064 209.052 96.5046 205.874 96.3826C205.045 96.3507 204.221 96.2159 203.429 95.973C202.899 98.5477 199.947 99.8497 197.617 100.272C194.714 100.799 191.8 99.9677 189.502 98.1616C188.794 100.915 185.061 101.868 182.921 100.237C182.397 99.8377 181.961 99.3319 181.605 98.7801C181.418 98.49 181.299 98.1646 181.124 97.872C180.9 97.4992 180.461 97.2404 180.134 96.9314C179.497 96.3302 178.96 95.6529 178.581 94.8607C178.384 94.4471 178.248 94.0176 178.095 93.5871C177.958 93.1995 177.694 92.9017 177.464 92.5628C178.179 92.3628 178.904 91.8072 179.439 91.3235C179.965 90.8488 180.307 90.0839 180.529 89.428C181.043 87.905 181.013 86.2365 180.791 84.665C180.306 81.2158 178.24 77.7692 174.431 77.5274C172.656 77.4148 168.418 79.3927 166.911 80.5596C165.326 81.7865 165.14 86.6323 165.212 87.0458C165.257 87.3017 165.419 87.5689 165.281 87.8178C164.977 88.365 163.95 88.1397 163.478 88.0121C162.664 87.792 161.942 87.3309 161.271 86.8348C159.81 85.7543 158.453 84.4979 157.266 83.1223C156.352 82.0618 155.544 80.9052 154.538 79.9252C153.537 78.9502 152.335 78.2215 150.921 78.0637C149.383 77.8919 147.831 78.1473 146.303 78.3014C144.788 78.4542 143.248 78.4955 141.788 78.0017C141.467 77.8931 141.146 77.7683 140.851 77.6019C140.618 77.4706 140.303 77.1582 140.029 77.1334C139.604 77.0948 139.352 77.8278 139.149 78.1462C138.144 79.7168 137.543 81.5349 137.227 83.3624C136.912 85.1799 136.744 86.8658 136.822 88.6952C136.88 90.052 137.264 91.6452 136.868 92.9638C136.691 93.5526 134.053 95.0883 132.992 95.141C131.93 95.1937 130.49 94.7168 129.915 94.2653C129.327 93.8033 128.944 93.173 128.766 92.4497C128.662 92.0242 128.649 91.5869 128.557 91.1641C128.48 90.8089 128.404 90.4744 128.423 90.107C128.46 89.4108 128.779 88.7736 129.312 88.3212C128.403 88.0313 127.55 87.5756 126.82 86.9615C126.061 86.3237 125.279 85.4829 124.771 84.6315C124.359 83.94 124.122 83.1345 124.229 82.3254C124.341 81.4766 124.881 80.7053 125.329 79.9993C123.997 79.6904 122.729 79.151 121.563 78.4427C119.295 77.0654 117.294 74.9296 116.861 72.2293Z" fill="#191847"/>
<path fill-rule="evenodd" clip-rule="evenodd" d="M115.067 244.938L87.7593 273.582C79.6497 277.394 73.0414 281.518 67.9343 285.955C66.8029 287.425 65.614 290.206 71.1362 288.78C76.6584 287.355 82.5311 286.104 83.643 287.876C84.7549 289.649 81.7726 292.534 83.7921 294.833C85.1384 296.366 89.2914 291.185 96.2511 279.29L125.06 260.867L115.067 244.938ZM235.793 224.306L215.232 228.043C235.224 266.796 245.949 287.338 247.408 289.667C250.689 294.909 247.396 304.364 246.156 309.352C253.405 311.163 250.712 300.162 259.883 302.598C268.254 304.821 275.293 310.293 283.246 303.194C284.224 302.322 284.974 299.556 281.712 298.079C273.585 294.399 261.601 287.561 259.682 284.95C257.065 281.389 249.102 261.175 235.793 224.306Z" fill="#915B3C"/>
<path fill-rule="evenodd" clip-rule="evenodd" d="M173.978 132.69L165.205 132.743C138.466 165.644 134.807 220.373 101.023 255.024L112.395 264.92C178.089 244.666 183.374 177.764 173.978 132.69Z" fill="#E87613"/>
<path fill-rule="evenodd" clip-rule="evenodd" d="M224.003 241.577C189.332 241.577 163.828 241.577 147.492 241.577C143.996 241.577 144.655 236.529 145.16 233.981C150.993 204.581 173.762 172.889 173.762 131.038L195.832 127.577C214.086 156.936 220.399 193.082 224.003 241.577Z" fill="#DDE3E9"/>
<path fill-rule="evenodd" clip-rule="evenodd" d="M223.389 156.435C226.594 155.514 229.132 153.365 231.004 149.988C239.07 135.433 236.157 127.42 227.536 124.785C218.916 122.151 211.228 127.577 197.494 127.577C196.747 127.577 196.062 127.624 195.441 127.718L188.532 128.112C168.71 195.292 163.243 240.114 172.131 262.577H232.352C235.92 270.897 239.334 277.897 242.595 283.577H259.004C260.548 233.644 248.676 191.264 223.389 156.435Z" fill="#FF9B21"/>
<path fill-rule="evenodd" clip-rule="evenodd" d="M219.238 228.075C217.344 243.921 214.266 255.422 210.003 262.577H232.352C228.19 252.872 223.818 241.372 219.238 228.075Z" fill="black" fill-opacity="0.1"/>
</svg>
